<?xml version="1.0" encoding="utf-8"?>
<!-- Generator: Adobe Illustrator 23.0.1, SVG Export Plug-In . SVG Version: 6.00 Build 0)  -->
<svg version="1.1" id="Layer_1" xmlns="http://www.w3.org/2000/svg" xmlns:xlink="http://www.w3.org/1999/xlink" x="0px" y="0px"
	 viewBox="0 0 283.5 191.3" style="enable-background:new 0 0 283.5 191.3;" xml:space="preserve">
<style type="text/css">
	.st0{fill:#3953A4;}
</style>
<title>1</title>
<path class="st0" d="M0,0v191.3h283.5V0H0z M256.7,132.8c-9.4,0-13.7-0.9-13-5.7c-3.9-0.2-7.7-0.7-11.4-1.7c2.1,3.9,1.7,6.3-3.7,6.3
	c-5.9,0-13.3-2.3-20.3-6.1c-0.9,1.6-2.7,2.4-5.8,2.4c-2.9,0-5.9-1.1-8.9-2.9c4,4.1,3.9,6.7-4.8,6.7c-7.6,0-16-2.6-24.1-6.9
	c-3.2-0.4-2.7,8.4-13.7,8.4c-8.8,0-13.2-9-14.3-8.9c1.3,4.1-0.9,6.4-9,5.7c-5-0.5-9.8-1.8-14.2-3.9c-1.4,2.3-4.2,4.2-6.1,5.3
	c-2.3,1.3-5.3,1.6-8,0.9c-2.4-0.7-5.1-2.2-7.7-5.5c0.7,3.2-2.6,4.2-12.2,1.9c-4.5-1-8.5-3-11.8-5.7c-7.7,15.1-24.4-3.3-26.8-11.3
	C24.6,60.9,25,22.1,44,31.4c1.4,0.7,2.6,1.8,3.6,3.2c7.1-7.9,17.9-3.8,17.9,8.4c0,4.3,1.9,9.7,4.8,15.8c2.1-15.8,5.9-29.1,12-29.1
	c3.7,0,5.9,2.5,7.4,6.5c4.7-7.5,11-12.3,19.6-10.8c10,1.7,11.3,8.5,10.3,17.7c8.1-9.3,16.1-12.6,19.4-1.4
	c10.9-15.6,23.1-25.1,26.6-13.2c1.3,4.4,1.7,8.8,1.4,13.3c8.9-7.6,17.3-12.1,21.9-9.2c4.2,2.6,3.5,8.5,1.5,15.8
	c10.2-14,22.6-26.2,33.4-23.4c9.4,2.4,2.4,14.6-5.6,28.5c8.2-6.6,16.4-11.2,21.9-11.2c7.6-9.4,13.9-13.8,15.5-6.6
	c4.8,21.8-11.6,53.5-4.3,66.1C258.8,114.2,268.3,132.8,256.7,132.8z"/>
</svg>
