<?xml version="1.0" encoding="utf-8"?>
<!-- Generator: Adobe Illustrator 23.0.1, SVG Export Plug-In . SVG Version: 6.00 Build 0)  -->
<svg version="1.1" id="Layer_1" xmlns="http://www.w3.org/2000/svg" xmlns:xlink="http://www.w3.org/1999/xlink" x="0px" y="0px"
	 viewBox="0 0 283.5 193.8" style="enable-background:new 0 0 283.5 193.8;" xml:space="preserve">
<style type="text/css">
	.st0{fill:#3953A4;}
</style>
<title>1</title>
<path class="st0" d="M0,0v193.8h283.5V0H0z M252.7,86c-3.5,14.5-9.7-3.2-13.6,6.5c-4.2,10.4,19.8,1.5,8.4,15.3
	c-15.5,18.7-12.5-4.9-18.1,3.6s13.9,13.9-1.4,21c-15.3,7.1-44.8-19.8-55.6-14.1c-10.8,5.6,5.2,16.2-13.9,15
	c-19.1-1.2-6.8-8.3-7.6-13.9c-0.8-4.9-10.1-1.4-9,2.3c3.1,10.6,7.7,15.6-12,13.4c-26.7-2.9-0.7-11.7-12.2-11.9
	c-11.5-0.2-8,16.9-22.5,8.8s9.2-11.1-1.7-16.6c-10.9-5.5-48.7-2.7-56.4-17.7C29.4,82.7,41.4,85.3,48,85.3c2.5,0,4.4-2.7-0.3-4
	c-4.2-1.1-24.3,6.3-14.5-14.1c6.6-13.7,8.8,4.7,14.7-4.2c6.4-9.5-19.1-4.6-4.8-16.3c19.4-15.9,11.2,6.8,18.6-0.7S52,32.1,67.6,25.6
	c8.4-3.4,46.9,17.4,47.7,22.9c0.7,4.2,10.8-0.2,7.2-3.2c-1.2-1.1-17-11.9,6.7-16.6c17-3.3,0.6,8.8,12.6,7.7
	c12.8-1.1-6.6-15.9,12.9-12.8c26.5,4.3-0.1,11.7,11.4,12.5c11.5,0.8,9.1-16.6,23.1-7.6c14,9-5.4,10.4,0.5,16.7
	c6.7,7.2,50.6-5,57.3,10.4c6.5,14.8-4.2,9.8-9.9,12.7c0,0-2.7,1-1.2,3.4C237.8,74.7,257.9,64.6,252.7,86z"/>
</svg>
