<?xml version="1.0" encoding="utf-8"?>
<!-- Generator: Adobe Illustrator 23.0.1, SVG Export Plug-In . SVG Version: 6.00 Build 0)  -->
<svg version="1.1" id="Layer_1" xmlns="http://www.w3.org/2000/svg" xmlns:xlink="http://www.w3.org/1999/xlink" x="0px" y="0px"
	 viewBox="0 0 283.5 193.8" style="enable-background:new 0 0 283.5 193.8;" xml:space="preserve">
<style type="text/css">
	.st0{fill:none;}
	.st1{fill:#3953A4;}
</style>
<title>1</title>
<g>
	<path class="st0" d="M239.4,55c-0.1-1.7,0.2-3.2,0.8-4.8c-2.6,0.4-5.3,0.8-7.9,1.2c-4.1,0.6-7.4,0.5-11.1-1.5
		c-3.1-1.6-5.1-4.7-6.3-7.9c-0.1-0.1-0.3-0.3-0.3-0.5c-1.1,0.5-2.2,1-3.4,1.5c-3.8,1.6-7.1,2.4-11.1,1.5c-3.6-0.9-6.6-3.5-8.6-6.6
		c-2-3.1-2.4-7.7-1.5-11.1c0.4-1.6,1.3-3.4,2.5-5.1H67.9c3.6,5.6,6.6,11.6,9.1,18c2.6,6.9-2.3,14.2-8.4,17.1
		c0.7,5.6-2.7,11.6-7.2,14.5c-3.1,2-7.7,2.4-11.1,1.5c-3.8-1.1-6.3-3.5-8.6-6.6c-0.4-0.5-0.8-1-1.1-1.5c-0.8-0.9-1.5-1.9-2.2-2.8
		c-0.3-0.4-0.7-0.8-1-1.2c-4.6,4.1-11.4,5.1-16.9,1.9c-2.2-1.3-4.4-2.4-6.7-3.5v74.3h12c0-0.1,0-0.2,0-0.3c0-1.6,0.8-3,1.7-3
		c1,0,1.7,1.3,1.7,3c0,0.1,0,0.2,0,0.3h41.7c6.6-5.6,13.7-10.7,21.4-14.9c7.1-3.8,15.4-1.6,19.7,5.2c0.8,1.3,1.4,2.7,1.7,4.2
		c0.6-0.3,1.3-0.6,2-0.8c5.1-1.7,10.1-3.6,15.1-5.5c0,0,2.6-1,3.3-1.4c1.3-0.6,2.5-1.2,3.8-1.8c2.7-1.3,5.3-2.6,7.9-3.9
		c7.2-3.7,15.3-1.7,19.7,5.2c2.6,4,2.5,9.5,0.4,13.8h27.7c-0.2-0.4-0.3-0.9-0.3-1.4c0-1.1,0.4-1.9,0.8-1.9c0.4,0,0.8,0.9,0.8,1.9
		c0,0.6-0.1,1.1-0.3,1.4H243c-1.8-3.9-1.8-8.6,0.6-13.1c1.6-3.1,5.3-5.7,8.6-6.6c3.3-0.9,8.3-0.6,11.1,1.5c2.6,1.8,5.1,3.7,7.7,5.7
		V69.4c-5.8,0-11.5,0-17.2,0C245.7,69.4,239.7,62.8,239.4,55z M16.9,94.9c0.3,0,0.6,1.5,0.6,3.3s-0.2,3.3-0.6,3.3
		c-0.3,0-0.6-1.5-0.6-3.3S16.5,94.9,16.9,94.9z M16.9,131.7c-0.4,0-0.8-0.8-0.8-1.7c0-1,0.4-1.7,0.8-1.7c0.4,0,0.8,0.8,0.8,1.7
		C17.7,130.9,17.3,131.7,16.9,131.7z M26.6,78.7c-0.5,0-0.9-0.4-0.9-0.9c0-0.5,0.4-0.9,0.9-0.9c0.5,0,0.9,0.4,0.9,0.9
		C27.4,78.3,27.1,78.7,26.6,78.7z M33.9,130c-0.6,0-1.1-0.9-1.1-2.1c0-1.1,0.5-2.1,1.1-2.1s1.1,0.9,1.1,2.1
		C34.9,129.1,34.5,130,33.9,130z M40.4,107.4c-0.8,0-1.4-1-1.4-2.3c0-1.3,0.6-2.3,1.4-2.3s1.4,1,1.4,2.3
		C41.9,106.3,41.2,107.4,40.4,107.4z M59.8,126.2c-0.9,0-1.6-0.7-1.6-1.6c0-0.9,0.7-1.6,1.6-1.6c0.9,0,1.6,0.7,1.6,1.6
		C61.4,125.5,60.7,126.2,59.8,126.2z M62.8,89.3c-0.8,0-1.4-1.1-1.4-2.5c0-1.4,0.6-2.5,1.4-2.5s1.4,1.1,1.4,2.5
		C64.2,88.2,63.5,89.3,62.8,89.3z M65.3,114.7c-0.6,0-1.1-0.5-1.1-1.1c0-0.6,0.5-1.1,1.1-1.1s1.1,0.5,1.1,1.1
		C66.4,114.2,65.9,114.7,65.3,114.7z M78.9,58.7c-0.8,0-1.4-1-1.4-2.3c0-1.3,0.6-2.3,1.4-2.3c0.8,0,1.4,1,1.4,2.3
		C80.3,57.6,79.7,58.7,78.9,58.7z M83.5,106.7c-0.6,0-1.1-0.9-1.1-2c0-1.1,0.5-2,1.1-2c0.6,0,1.1,0.9,1.1,2
		C84.6,105.8,84.1,106.7,83.5,106.7z M90.9,25.8c-0.7,0-1.2-0.5-1.2-1.2c0-0.7,0.5-1.2,1.2-1.2s1.2,0.5,1.2,1.2
		C92.1,25.2,91.5,25.8,90.9,25.8z M93,84.4c-0.3,0-0.6-1-0.6-2.3s0.3-2.3,0.6-2.3c0.3,0,0.6,1,0.6,2.3S93.3,84.4,93,84.4z
		 M100.8,38.4c-1.2,0-2.2-1-2.2-2.2c0-1.2,1-2.2,2.2-2.2c1.2,0,2.2,1,2.2,2.2C103.1,37.4,102.1,38.4,100.8,38.4z M110,62.3
		c0-1.1,0.4-2.1,0.9-2.1c0.5,0,0.9,0.9,0.9,2.1c0,1.1-0.4,2.1-0.9,2.1C110.5,64.4,110,63.5,110,62.3z M111.5,114.1
		c-0.3,0-0.5-1.2-0.5-2.6s0.2-2.6,0.5-2.6s0.5,1.2,0.5,2.6S111.7,114.1,111.5,114.1z M122.6,93.8c-0.6,0-1.2-0.5-1.2-1.2
		s0.5-1.2,1.2-1.2c0.6,0,1.2,0.5,1.2,1.2S123.3,93.8,122.6,93.8z M127.1,26.2c-0.8,0-1.5-0.7-1.5-1.5c0-0.8,0.7-1.5,1.5-1.5
		c0.8,0,1.5,0.7,1.5,1.5C128.6,25.5,127.9,26.2,127.1,26.2z M132.6,51.6c-0.5,0-0.9-0.4-0.9-0.9c0-0.5,0.4-0.9,0.9-0.9
		c0.5,0,0.9,0.4,0.9,0.9C133.5,51.2,133.1,51.6,132.6,51.6z M143.2,73.9c-0.8,0-1.4-0.9-1.4-2c0-1.1,0.6-2,1.4-2s1.4,0.9,1.4,2
		C144.6,73,144,73.9,143.2,73.9z M145.1,30.3c-0.3,0-0.5-0.6-0.5-1.4c0-0.8,0.2-1.4,0.5-1.4c0.3,0,0.5,0.6,0.5,1.4
		C145.6,29.7,145.4,30.3,145.1,30.3z M148.7,104.6c-0.4,0-0.8-0.7-0.8-1.5c0-0.8,0.4-1.5,0.8-1.5c0.4,0,0.8,0.7,0.8,1.5
		C149.5,103.9,149.1,104.6,148.7,104.6z M158.9,24.7c0-0.7,0.2-1.3,0.6-1.3c0.3,0,0.6,0.6,0.6,1.3c0,0.7-0.2,1.3-0.6,1.3
		C159.1,26,158.9,25.4,158.9,24.7z M160.7,57.6c-0.7,0-1.2-0.5-1.2-1.2c0-0.7,0.5-1.2,1.2-1.2c0.7,0,1.2,0.5,1.2,1.2
		C161.9,57,161.3,57.6,160.7,57.6z M167.9,92.7c-0.4,0-0.7-0.7-0.7-1.7c0-0.9,0.3-1.7,0.7-1.7s0.7,0.7,0.7,1.7
		C168.6,91.9,168.3,92.7,167.9,92.7z M168.5,31.4c-0.7,0-1.3-0.6-1.3-1.3c0-0.7,0.6-1.3,1.3-1.3c0.7,0,1.3,0.6,1.3,1.3
		C169.8,30.9,169.2,31.4,168.5,31.4z M180.1,117.9c-0.7,0-1.3-0.6-1.3-1.3c0-0.7,0.6-1.3,1.3-1.3c0.7,0,1.3,0.6,1.3,1.3
		C181.3,117.4,180.7,117.9,180.1,117.9z M185.6,73.9c-0.5,0-1-0.4-1-1c0-0.5,0.4-1,1-1c0.5,0,1,0.4,1,1
		C186.5,73.4,186.1,73.9,185.6,73.9z M188.5,26.4c-0.5,0-0.9-0.4-0.9-0.9c0-0.5,0.4-0.9,0.9-0.9c0.5,0,0.9,0.4,0.9,0.9
		C189.3,26,188.9,26.4,188.5,26.4z M198.7,106c-0.5,0-0.9-0.4-0.9-0.9c0-0.5,0.4-0.9,0.9-0.9c0.5,0,0.9,0.4,0.9,0.9
		C199.6,105.6,199.2,106,198.7,106z M199.6,52.6c-0.5,0-0.9-0.8-0.9-1.7c0-1,0.4-1.7,0.9-1.7c0.5,0,0.9,0.8,0.9,1.7
		C200.5,51.9,200.1,52.6,199.6,52.6z M205.5,87.9c-0.4,0-0.8-0.8-0.8-1.8c0-1,0.4-1.8,0.8-1.8c0.4,0,0.8,0.8,0.8,1.8
		C206.3,87.1,205.9,87.9,205.5,87.9z M217.6,113.6c-0.5,0-0.9-0.7-0.9-1.6c0-0.9,0.4-1.6,0.9-1.6c0.5,0,0.9,0.7,0.9,1.6
		C218.5,112.9,218.1,113.6,217.6,113.6z M226.6,64.4c0.3,0,0.5,0.6,0.5,1.3c0,0.7-0.2,1.3-0.5,1.3c-0.3,0-0.5-0.6-0.5-1.3
		C226.1,65,226.3,64.4,226.6,64.4z M226.1,131.3c-0.8,0-1.4-0.6-1.4-1.4c0-0.8,0.6-1.4,1.4-1.4c0.8,0,1.4,0.6,1.4,1.4
		C227.5,130.7,226.9,131.3,226.1,131.3z M232.9,95.9c-0.6,0-1-0.5-1-1s0.5-1,1-1c0.6,0,1,0.5,1,1S233.5,95.9,232.9,95.9z M242.3,120
		c-0.4,0-0.7-0.7-0.7-1.7c0-0.9,0.3-1.7,0.7-1.7c0.4,0,0.7,0.7,0.7,1.7C243,119.3,242.7,120,242.3,120z M248.4,82.1
		c-0.6,0-1.1-1.2-1.1-2.6c0-1.4,0.5-2.6,1.1-2.6c0.6,0,1.1,1.2,1.1,2.6C249.6,80.9,249.1,82.1,248.4,82.1z M265.7,98.2
		c0.6,0,1.1,1.5,1.1,3.4c0,1.9-0.5,3.4-1.1,3.4c-0.6,0-1.1-1.5-1.1-3.4C264.6,99.7,265.1,98.2,265.7,98.2z"/>
	<ellipse class="st1" cx="62.8" cy="86.9" rx="1.4" ry="2.5"/>
	<path class="st1" d="M40.4,102.8c-0.8,0-1.4,1-1.4,2.3c0,1.3,0.6,2.3,1.4,2.3s1.4-1,1.4-2.3C41.9,103.8,41.2,102.8,40.4,102.8z"/>
	<path class="st1" d="M59.8,123.1c-0.9,0-1.6,0.7-1.6,1.6c0,0.9,0.7,1.6,1.6,1.6c0.9,0,1.6-0.7,1.6-1.6
		C61.4,123.8,60.7,123.1,59.8,123.1z"/>
	<path class="st1" d="M16.9,128.2c-0.4,0-0.8,0.8-0.8,1.7c0,1,0.4,1.7,0.8,1.7c0.4,0,0.8-0.8,0.8-1.7
		C17.7,129,17.3,128.2,16.9,128.2z"/>
	<path class="st1" d="M33.9,125.9c-0.6,0-1.1,0.9-1.1,2.1c0,1.1,0.5,2.1,1.1,2.1s1.1-0.9,1.1-2.1C34.9,126.8,34.5,125.9,33.9,125.9z
		"/>
	<path class="st1" d="M83.5,102.8c-0.6,0-1.1,0.9-1.1,2c0,1.1,0.5,2,1.1,2c0.6,0,1.1-0.9,1.1-2C84.6,103.6,84.1,102.8,83.5,102.8z"
		/>
	<path class="st1" d="M78.9,54c-0.8,0-1.4,1-1.4,2.3c0,1.3,0.6,2.3,1.4,2.3c0.8,0,1.4-1,1.4-2.3C80.3,55.1,79.7,54,78.9,54z"/>
	<path class="st1" d="M90.9,23.3c-0.7,0-1.2,0.5-1.2,1.2c0,0.7,0.5,1.2,1.2,1.2s1.2-0.5,1.2-1.2C92.1,23.9,91.5,23.3,90.9,23.3z"/>
	<path class="st1" d="M100.8,33.9c-1.2,0-2.2,1-2.2,2.2c0,1.2,1,2.2,2.2,2.2c1.2,0,2.2-1,2.2-2.2C103.1,34.9,102.1,33.9,100.8,33.9z
		"/>
	<circle class="st1" cx="127.1" cy="24.7" r="1.5"/>
	<path class="st1" d="M111.9,62.3c0-1.1-0.4-2.1-0.9-2.1c-0.5,0-0.9,0.9-0.9,2.1c0,1.1,0.4,2.1,0.9,2.1
		C111.5,64.4,111.9,63.5,111.9,62.3z"/>
	<ellipse class="st1" cx="93" cy="82.1" rx="0.6" ry="2.3"/>
	<path class="st1" d="M111.5,108.9c-0.3,0-0.5,1.2-0.5,2.6s0.2,2.6,0.5,2.6s0.5-1.2,0.5-2.6S111.7,108.9,111.5,108.9z"/>
	<circle class="st1" cx="65.3" cy="113.6" r="1.1"/>
	<path class="st1" d="M122.6,91.5c-0.6,0-1.2,0.5-1.2,1.2s0.5,1.2,1.2,1.2c0.6,0,1.2-0.5,1.2-1.2S123.3,91.5,122.6,91.5z"/>
	<circle class="st1" cx="132.6" cy="50.7" r="0.9"/>
	<path class="st1" d="M145.1,27.5c-0.3,0-0.5,0.6-0.5,1.4c0,0.8,0.2,1.4,0.5,1.4c0.3,0,0.5-0.6,0.5-1.4
		C145.6,28.1,145.4,27.5,145.1,27.5z"/>
	<path class="st1" d="M160,24.7c0-0.7-0.2-1.3-0.6-1.3c-0.3,0-0.6,0.6-0.6,1.3c0,0.7,0.2,1.3,0.6,1.3C159.8,26,160,25.4,160,24.7z"
		/>
	<circle class="st1" cx="168.5" cy="30.2" r="1.3"/>
	<path class="st1" d="M160.7,55.1c-0.7,0-1.2,0.5-1.2,1.2c0,0.7,0.5,1.2,1.2,1.2c0.7,0,1.2-0.5,1.2-1.2
		C161.9,55.7,161.3,55.1,160.7,55.1z"/>
	<path class="st1" d="M143.2,70c-0.8,0-1.4,0.9-1.4,2c0,1.1,0.6,2,1.4,2s1.4-0.9,1.4-2C144.6,70.8,144,70,143.2,70z"/>
	<path class="st1" d="M148.7,101.5c-0.4,0-0.8,0.7-0.8,1.5c0,0.8,0.4,1.5,0.8,1.5c0.4,0,0.8-0.7,0.8-1.5
		C149.5,102.2,149.1,101.5,148.7,101.5z"/>
	<path class="st1" d="M194.1,129.9c-0.4,0-0.8,0.9-0.8,1.9c0,0.6,0.1,1.1,0.3,1.4h1.1c0.2-0.4,0.3-0.9,0.3-1.4
		C194.9,130.8,194.6,129.9,194.1,129.9z"/>
	<circle class="st1" cx="180.1" cy="116.7" r="1.3"/>
	<path class="st1" d="M167.9,89.3c-0.4,0-0.7,0.7-0.7,1.7c0,0.9,0.3,1.7,0.7,1.7s0.7-0.7,0.7-1.7C168.6,90.1,168.3,89.3,167.9,89.3z
		"/>
	<path class="st1" d="M185.6,71.9c-0.5,0-1,0.4-1,1c0,0.5,0.4,1,1,1c0.5,0,1-0.4,1-1C186.5,72.4,186.1,71.9,185.6,71.9z"/>
	<path class="st1" d="M199.6,49.2c-0.5,0-0.9,0.8-0.9,1.7c0,1,0.4,1.7,0.9,1.7c0.5,0,0.9-0.8,0.9-1.7
		C200.5,50,200.1,49.2,199.6,49.2z"/>
	<path class="st1" d="M188.5,24.7c-0.5,0-0.9,0.4-0.9,0.9c0,0.5,0.4,0.9,0.9,0.9c0.5,0,0.9-0.4,0.9-0.9
		C189.3,25.1,188.9,24.7,188.5,24.7z"/>
	<path class="st1" d="M214.7,42c-0.1-0.2-0.1-0.4-0.2-0.5c0,0-0.1,0-0.1,0.1C214.5,41.8,214.6,41.9,214.7,42z"/>
	<path class="st1" d="M205.5,84.4c-0.4,0-0.8,0.8-0.8,1.8c0,1,0.4,1.8,0.8,1.8c0.4,0,0.8-0.8,0.8-1.8
		C206.3,85.2,205.9,84.4,205.5,84.4z"/>
	<ellipse class="st1" cx="217.6" cy="112" rx="0.9" ry="1.6"/>
	<circle class="st1" cx="198.7" cy="105.1" r="0.9"/>
	<path class="st1" d="M226.1,128.6c-0.8,0-1.4,0.6-1.4,1.4c0,0.8,0.6,1.4,1.4,1.4c0.8,0,1.4-0.6,1.4-1.4
		C227.5,129.2,226.9,128.6,226.1,128.6z"/>
	<path class="st1" d="M242.3,116.7c-0.4,0-0.7,0.7-0.7,1.7c0,0.9,0.3,1.7,0.7,1.7c0.4,0,0.7-0.7,0.7-1.7
		C243,117.4,242.7,116.7,242.3,116.7z"/>
	<circle class="st1" cx="232.9" cy="94.9" r="1"/>
	<path class="st1" d="M226.6,67c0.3,0,0.5-0.6,0.5-1.3c0-0.7-0.2-1.3-0.5-1.3c-0.3,0-0.5,0.6-0.5,1.3C226.1,66.4,226.3,67,226.6,67z
		"/>
	<circle class="st1" cx="26.6" cy="77.8" r="0.9"/>
	<path class="st1" d="M16.9,101.5c0.3,0,0.6-1.5,0.6-3.3s-0.2-3.3-0.6-3.3c-0.3,0-0.6,1.5-0.6,3.3S16.5,101.5,16.9,101.5z"/>
	<path class="st1" d="M27.4,129.9c-1,0-1.7,1.3-1.7,3c0,0.1,0,0.2,0,0.3h3.4c0-0.1,0-0.2,0-0.3C29.2,131.3,28.4,129.9,27.4,129.9z"
		/>
	<ellipse class="st1" cx="248.4" cy="79.5" rx="1.1" ry="2.6"/>
	<ellipse class="st1" cx="265.7" cy="101.6" rx="1.1" ry="3.4"/>
	<path class="st1" d="M283.5,131V69.3V12.4V0h-4.9h-47H47.8H12.6h-0.8H3.2H0v1.4v52.9v139.5h273.7h9.7V131z M271,120.7
		c-2.6-2-5.1-3.8-7.7-5.7c-2.9-2.1-7.8-2.4-11.1-1.5c-3.3,0.9-7,3.5-8.6,6.6c-2.4,4.5-2.4,9.1-0.6,13.1h-48.4h-1.1h-27.7
		c2.1-4.4,2.2-9.8-0.4-13.8c-4.4-6.8-12.6-8.9-19.7-5.2c-2.6,1.4-5.3,2.7-7.9,3.9c-1.3,0.6-2.5,1.2-3.8,1.8
		c-0.7,0.3-3.3,1.3-3.3,1.4c-5,1.9-10,3.9-15.1,5.5c-0.7,0.2-1.4,0.5-2,0.8c-0.3-1.5-0.9-2.9-1.7-4.2c-4.4-6.7-12.6-9-19.7-5.2
		c-7.6,4.2-14.7,9.3-21.4,14.9H29.1h-3.4h-12V58.9c2.3,1.1,4.5,2.3,6.7,3.5c5.5,3.2,12.4,2.2,16.9-1.9c0.3,0.4,0.7,0.8,1,1.2
		c0.8,0.9,1.4,1.9,2.2,2.8c0.4,0.5,0.8,1,1.1,1.5c2.3,3.1,4.8,5.6,8.6,6.6c3.4,1,8,0.5,11.1-1.5c4.5-2.9,7.9-9,7.2-14.5
		c6.1-2.9,11-10.2,8.4-17.1c-2.5-6.4-5.4-12.4-9.1-18h124.4c-1.2,1.6-2.1,3.5-2.5,5.1c-1,3.4-0.5,8,1.5,11.1c2,3.1,5,5.8,8.6,6.6
		c4,0.9,7.3,0.2,11.1-1.5c1.1-0.5,2.2-1,3.4-1.5c0,0,0.1,0,0.1-0.1c0.1,0.2,0.1,0.4,0.2,0.5c1.2,3.2,3.3,6.2,6.3,7.9
		c3.7,1.9,7,2,11.1,1.5c2.7-0.4,5.3-0.8,7.9-1.2c-0.6,1.5-0.8,3.1-0.8,4.8c0.4,7.8,6.3,14.4,14.4,14.4c5.7,0,11.4,0,17.2,0V120.7z"
		/>
</g>
</svg>
