<?xml version="1.0" encoding="utf-8"?>
<!-- Generator: Adobe Illustrator 23.0.1, SVG Export Plug-In . SVG Version: 6.00 Build 0)  -->
<svg version="1.1" id="Layer_1" xmlns="http://www.w3.org/2000/svg" xmlns:xlink="http://www.w3.org/1999/xlink" x="0px" y="0px"
	 viewBox="0 0 283.5 193.8" style="enable-background:new 0 0 283.5 193.8;" xml:space="preserve">
<style type="text/css">
	.st0{fill:#3953A4;}
</style>
<title>1</title>
<path class="st0" d="M0,0v193.8h283.5V0H0z M173.1,132.7l-1.9-97.1l-11.6-1l1.5,96.3h-13.7l-9-51.1l1.6,51.1h-6.3l0.4,1.8h-9.8
	l-9.4-33.7l-8.2,0.8v32.9l-6.3-1l0.4,3.2H84.4V98.3l-18.4-1l4.7,36.7l-14.5-1l-0.5-22c-6.3,2.8-15.2,2.4-15.2,2.4l2.3,17
	c0,0-9,1-18.4,0c-9.4-1-8.2-101.6-8.2-101.6H54l-0.1-3.4l9.4-1l0.3,6.9c7.3,7.3,4.9,29.7,2,47.8L66,89h13.7l-2.4-62l9.4-1.8
	l10.7,83.3l6.1-79.9l7-1.4l19.9,89.5V27.3h7l16.8,91.4l-2.7-91.4h7.8l0.1,3.2h34l2.4,4.3h-14.5l7.8,97.8L173.1,132.7L173.1,132.7z
	 M262.3,134.8l-7.8-66l-0.4,66h-15.6l-9.8-58.1l1.6,58.1l-8.6-2.2v-18.4c-1.6,9.7-4.6,17.6-10.5,17.6c-13.3,0-16.4-15.6-20.8-54.1
	c-4.3-38.5,9.4-46.3,21.5-46.3c5.1,0,8,3.9,9.8,9.6V27.3h7.4l15.6,83.4V27.3h14l13.7,107.6L262.3,134.8L262.3,134.8L262.3,134.8z"/>
</svg>
