<?xml version="1.0" encoding="utf-8"?>
<!-- Generator: Adobe Illustrator 23.0.1, SVG Export Plug-In . SVG Version: 6.00 Build 0)  -->
<svg version="1.1" id="Layer_1" xmlns="http://www.w3.org/2000/svg" xmlns:xlink="http://www.w3.org/1999/xlink" x="0px" y="0px"
	 viewBox="0 0 283.5 201.1" style="enable-background:new 0 0 283.5 201.1;" xml:space="preserve">
<style type="text/css">
	.st0{fill:#3953A4;}
</style>
<rect y="81.2" class="st0" width="52.3" height="5.8"/>
<rect x="224.3" y="89.4" class="st0" width="59.1" height="5.1"/>
<rect y="91.4" class="st0" width="105.8" height="4"/>
<rect x="203.9" y="104.7" class="st0" width="79.5" height="6.5"/>
<rect x="27.2" y="129.2" class="st0" width="256.3" height="3.4"/>
<rect y="111.1" class="st0" width="71.8" height="7.7"/>
<rect x="97.9" y="115.4" class="st0" width="185.5" height="4.6"/>
<rect y="123.2" class="st0" width="183.9" height="4.2"/>
<rect y="0" class="st0" width="283.5" height="20.2"/>
<rect y="134.8" class="st0" width="283.5" height="66.3"/>
<rect x="114.9" y="22" class="st0" width="168.6" height="4.8"/>
<rect y="28.6" class="st0" width="270" height="4"/>
<rect x="40.6" y="36.3" class="st0" width="242.9" height="6.2"/>
<rect x="239.5" y="74.4" class="st0" width="44" height="3.3"/>
<rect y="46.4" class="st0" width="108.6" height="7.2"/>
<rect x="231.4" y="59.7" class="st0" width="52.1" height="4.9"/>
<rect y="64.6" class="st0" width="183.9" height="4.2"/>
<rect y="0" class="st0" width="23.5" height="201.1"/>
<rect x="259.9" y="0" class="st0" width="23.5" height="201.1"/>
</svg>
