<?xml version="1.0" encoding="utf-8"?>
<!-- Generator: Adobe Illustrator 23.0.1, SVG Export Plug-In . SVG Version: 6.00 Build 0)  -->
<svg version="1.1" id="Layer_1" xmlns="http://www.w3.org/2000/svg" xmlns:xlink="http://www.w3.org/1999/xlink" x="0px" y="0px"
	 viewBox="0 0 283.5 193.8" style="enable-background:new 0 0 283.5 193.8;" xml:space="preserve">
<style type="text/css">
	.st0{fill:none;}
	.st1{fill:#3953A4;}
</style>
<title>1</title>
<g>
	<path class="st0" d="M41.1,39.2L41.1,39.2L41.1,39.2z"/>
	<path class="st1" d="M0,0v193.9h283.4v-54h0.1V0H0z M258,74.1h-6.2c-7.5,0-14.8,6.6-14.4,14.4c0.4,7.8,6.3,14.4,14.4,14.4h4.5
		c-2.5,1.9-3.1,5.6-1.8,8.4c-2.9,2.6-2.9,7.9,0.3,10.4c-0.7,0.7-1.1,1.4-1.4,2.3c-6-2.8-12.1-5.4-18.3-7.8c-7-2.8-16.2,1.5-18.4,8.8
		c-0.2,0.6-0.3,1.2-0.4,1.7c-2.9,0.4-4.7,2.6-5.2,5h-0.4c-1.4,0-2.5,0.4-3.4,0.9c-1.1-1.2-2.6-1.9-4.7-1.9c-2,0-3.5,0.8-4.6,1.9
		c-0.8-2.4-2.7-4.4-6-4.4c-3.4,0-5.5,2.2-6.1,4.8c-1.1-1.1-2.5-1.8-4.5-1.8c-2.2,0-3.9,0.9-5,2.3c-0.9-0.5-1.9-0.8-3.1-0.8
		c-0.1,0-0.1,0-0.2,0c-0.8-2.3-2.8-4-5.9-4c-1.7,0-3,0.5-4,1.3c-0.6-0.2-1.3-0.3-2.1-0.3c-0.5,0-1,0.1-1.4,0.2
		c-1.6-6.2-7.4-11.3-14-11.1c-6.9,0.3-12.8,5-14.2,11.6c-1.1-1.3-2.7-2.2-4.9-2.2c-3.2,0-5.2,1.9-6,4.3c-0.9-0.5-1.9-0.8-3.1-0.8
		c-3.4,0-5.5,2.2-6.1,4.8h-1.7c0.1-3.3-2-6.8-6.3-6.8c-2.6,0-4.5,1.3-5.5,3c-0.8-0.3-1.7-0.5-2.6-0.5c-1.3,0-2.4,0.3-3.3,0.8
		c-0.9-2.2-2.8-3.8-5.8-3.8c-2.4,0-4.1,1.1-5.2,2.6c-0.8-1.5-2.2-2.6-4.3-3c-0.2-2.8-1.1-5.5-2.8-7.6c-5.2-6.3-13.5-7.4-20.2-2.9
		c-3.6,2.5-7.4,4.9-11.2,7.1c-1.6,1-3.3,1.9-4.9,2.8c3.6-2.1,0.3-0.2-0.5,0.3c-1,0.6-1.9,1.1-2.9,1.6c-1.7,0.9-3.4,1.8-5.2,2.7
		c-0.3-1.7-1.2-3.1-2.6-4.1c4.3-2.8,3.6-10.6-1.9-11.9c0.4-2.1-0.2-4.3-1.6-5.8c0.3,0.1,0.6,0.1,0.9,0.1c4.2,0,6.3-3.1,6.3-6.4h2
		c7.5,0,14.8-6.6,14.4-14.4s-6.3-14.4-14.4-14.4h-1c0.1-1.7-0.5-3.5-1.6-4.8c3.2-3.7,1.7-11.1-4.8-11.1c-0.6,0-1.1,0.1-1.5,0.2
		c3.6-3,3-10.1-2.1-11.5v-0.3c1,0.7,2.2,1.1,3.6,1.1c4.7,0,6.8-4,6.3-7.6h0.3c3.3,0,5.3-2,6-4.4c3.2,3.7,6.7,6.9,10.5,10.1
		c3.6,3,7,5.8,10.9,7.3c1,0.5,2.2,0.9,3.5,1.1c0,0,0.1,0,0.1,0c0.1,0,0.3,0,0.4,0.1c0.2,0,0.3,0,0.5,0.1c0.4,0.1,0.9,0.1,1.3,0.1
		c0.2,0,0.4,0,0.6,0.1c4.2,0.5,8.6-0.8,11.6-4c5.3-5.7,5.8-14.8,0.1-20.4c-0.6-0.6-1.1-1-1.7-1.6c0-0.1-0.1-0.1-0.1-0.2
		c0.8,0.4,1.5,0.6,2.5,0.6c1,1.8,2.8,3,5.5,3c3.9,0,6-2.8,6.3-5.9c0.9,0.5,2,0.8,3.3,0.8c1.4,0,2.6-0.4,3.5-1
		c0.7,2.5,2.7,4.6,6.1,4.6c0.7,0,1.4-0.1,2-0.3c1,1.9,2.8,3.3,5.6,3.3c1.8,0,3.1-0.6,4.2-1.5c2.1,5.4,7.2,9.6,13.4,9.4
		c7.5-0.4,14.4-6.2,14.4-14c0.3,0.1,0.6,0.1,1,0.1c2.7,0,4.5-1.3,5.5-3.1c1.1,1.5,2.8,2.6,5.2,2.6c1.5,0,2.7-0.4,3.7-1.1
		c0.8,0.4,1.8,0.6,2.9,0.6c2.4,0,4.1-1.1,5.2-2.6c1,1.8,2.8,3.1,5.5,3.1c2.2,0,3.8-0.9,4.9-2.2c1,1.6,2.8,2.7,5.3,2.7
		c2.8,0,4.7-1.4,5.6-3.3c1,0.8,2.3,1.3,4,1.3c1.8,0,3.2-0.6,4.3-1.6c1.1,1,2.5,1.6,4.3,1.6c2.1,0,3.7-0.9,4.8-2.1
		c-0.3,3.5,1.8,7.2,6.3,7.2c1.9,0,3.3-0.7,4.4-1.6c0.1,0.8,0.4,1.6,0.7,2.4c-2.8,3.5-4,8.2-2.6,12.7c2.4,7.4,10,12.3,17.8,10.1
		c6.3-1.8,12.5-3.9,18.5-6.4c-0.1,3.3,2,6.7,6.3,6.7c0.3,0,0.6,0,0.8-0.1c0.3,1.9,1.2,3.7,2.9,4.8c-2.3,2.8-1.9,7.7,1.2,9.9
		C259,71.2,258.3,72.6,258,74.1z"/>
</g>
</svg>
