<?xml version="1.0" encoding="utf-8"?>
<!-- Generator: Adobe Illustrator 23.0.1, SVG Export Plug-In . SVG Version: 6.00 Build 0)  -->
<svg version="1.1" id="Layer_1" xmlns="http://www.w3.org/2000/svg" xmlns:xlink="http://www.w3.org/1999/xlink" x="0px" y="0px"
	 viewBox="0 0 283.5 193.8" style="enable-background:new 0 0 283.5 193.8;" xml:space="preserve">
<style type="text/css">
	.st0{fill:#3953A4;}
</style>
<title>1</title>
<path class="st0" d="M0,0v193.8h283.5V0H0z M262.3,53.9c-0.2,0.8-0.3,1.7-0.5,2.5c-0.8,4.7-1.3,9.4-1.7,14.1
	c-1.6,19.5-0.9,39.3-0.8,58.9c-0.8,0.3-1.6,0.7-2.3,1.2c-0.1-0.1-0.2-0.1-0.2-0.1c-5.2-2.3-10.9-2.2-15.9,0.6
	c-0.8,0.4-1.2,1.1-1.2,1.8h-5.1c-3.9-0.4-7.9-1.3-11.7-2.2c-2.3-0.6-4.6-1.5-6.9-1.3c-2.4,0.2-4.8,1.2-7.1,1.8
	c-5.7,1.4-11.6,1.7-17.4,0.9c-0.7-0.1-1.3,0.1-1.8,0.3c-1.6-0.3-3.2-0.7-4.8-0.9c-6.8-1.1-13.7-1.8-20.6-2.3
	c-2.4-0.2-5.4-0.9-7.7-0.2c0.5-1.2,0.6-2.4,0.4-3.7c-0.1-0.8-1-1.5-1.8-1.7c-5.4-1.4-10.8-0.1-15,3.5c-0.1,0.1-0.2,0.2-0.3,0.3
	l-7.3,0.5c-1.1,0.1-2.3,0.1-3.5,0.2c-1.4-1.3-3.4-2-5.4-2.1c-1.1-0.1-2.1,0.2-3.1,0.4c-0.2-0.2-0.3-0.3-0.4-0.4
	c-2.1-1.6-4.8-2-7.3-1.3c-1.4,0.4-2,1.7-1.8,3c0,0.1,0.1,0.2,0.1,0.3c-1.3,0.6-2.5,1.1-3.8,1.5c-2.6,0.8-5.3,1.4-8,1.9
	c-10.9,1.9-22.2,1.5-33.3,1c-0.2,0-0.3,0-0.5,0c-0.3-0.2-0.7-0.3-1.1-0.3c-2.9,0-5.8,0.3-8.6,0.8c-0.6,0.1-1.3,0.1-1.9,0.1h-6.7
	c-2.8-1-5.9-1.2-9.1-1c-4.7,0.2-11.3,1.2-13.9-3.7c-0.4-0.7-0.9-1-1.5-1.2c0.1-1.3,0.2-2.6,0.3-3.9c0.6-7.5,1.2-15,1.8-22.5
	c0.1-0.8,0.2-1.6,0.2-2.5c1.5-2.4,3-4.8,4.6-7.1c0.6-0.9,0.4-2.3-0.4-3c-4-3.4-5.3-7.9-4.6-13c0.7-5.3-2.1-10.1-3.5-15.1v-27
	c0.6-2,1.6-3.7,3.3-4.4c1.1-0.5,2.2-1.7,1.9-2.9c0.1,0,0.1,0.1,0.2,0.1c1.7,0.6,3.2,1.5,5,1.5c1.4,0,2.7-0.6,3.9-1.3
	c0.6-0.3,1.1-0.8,1.7-0.9c1-0.2,1.9,0.3,2.7,0.6c6.1,2.4,11.9,0.2,18-1.3c3-0.7,6-1.1,8.9,0.2c1.5,0.7,2.9,1.6,4.5,2
	c1.9,0.5,3.8,0.4,5.7,0.3c8.7-0.6,17.4-0.5,26.1,0.3c2.1,0.2,4.2,0.4,6.2,1.1c1.7,0.7,3.2,1.8,5.1,2c2.8,0.4,5-1.2,5.6-3.5
	c4.2-0.1,8.3-0.3,12.5-0.8c0.2,1.4,1.3,2.7,3.1,2.3c7.3-1.9,14.7-3.6,22.1-5.4h22c1.4,0.5,2.9,0.9,4.4,1.2
	c7.7,1.9,15.5,0.8,23.3-0.5c1.7-0.3,3.4-0.6,5.1-0.8h18c0.3,0.1,0.5,0.1,0.8,0.2c8.6,1.6,16.9,3.8,25.6,2.8c1,1.5,2.1,2.8,3.4,4.1
	c0.1,2.3,0,4.6,0.3,6.8c0.3,2.2,1.1,4.1,1.9,6.2c0.1,0.1,0.1,0.2,0.1,0.3L262.3,53.9L262.3,53.9z"/>
<path class="st0" d="M84.5,119.5c-3.1,2.1-6.1,1.9-9.3,0.2c-2.6-1.4-5.2-1.8-7.9-0.4c-2.5,1.3-4.7,3.4-7.8,2.7
	c-2.7-0.7-3.3-3.9-6.3-4.6c-3.1-0.7-5.6,1.1-7.9,2.8c-1,0.7-2.5,2-3.5,1c-0.8-0.9-0.8-2.1-1.8-3c-2.2-1.7-5.1-0.8-7.4,0.2
	c-2.6,1-4.8,2.7-5.4,5.5c-0.7,3.1,4.2,4.4,4.9,1.3c0.3-1.3,1.3-1.8,2.5-2.2c0.6-0.2,1.3-0.5,1.9-0.6c0.3-0.1,0.4-0.1,0.5-0.2
	c0,0.1,0.1,0.2,0.1,0.3c1.2,2.2,2.3,3.8,5.1,4c3.2,0.2,5.2-1.7,7.6-3.3c1.6-1,2.5-1.3,3.6,0.2c0.8,1,1.7,1.9,2.8,2.5
	c2.2,1.2,4.9,1.3,7.3,0.8c1.3-0.3,2.6-0.8,3.7-1.5c1.1-0.6,2.2-1.8,3.4-2c1.3-0.2,2.5,0.9,3.6,1.5c1.4,0.7,2.7,1,4.3,1.2
	c3,0.3,6.1-0.5,8.6-2.2C89.6,121.9,87.2,117.6,84.5,119.5z"/>
<path class="st0" d="M116.5,57.3c-0.5-0.1-1-0.1-1.4-0.1c0.1,0.7,0.1,0.7-0.1,0.2c-0.2-0.5-0.1-1.3-0.2-1.8
	c-0.3-1.4-0.9-2.6-2.1-3.4c-1.3-0.8-2.8-0.9-4.3-0.6c-1.5,0.3-2.8,1.5-4.4,1.7c-1.1,0.2-0.8,0.4-0.9-0.8c-0.1-0.8,0.2-1.6,0.1-2.3
	c-0.1-1.4-0.7-2.7-1.7-3.7c-1.9-2-5-2.8-7.6-1.7c-1.5,0.6-2.5,1.7-3.4,2.9c-1.2,1.7-1.9,2.8-4.3,2.1c-3.5-1-6.8-3.5-10.5-1.5
	c-2.7,1.5-3.8,4.5-2.5,7.2c1.4,2.8,5.8,0.4,4.4-2.5c-0.4-0.9,3-0.2,3.3-0.1c1.5,0.5,2.8,1.3,4.3,1.7c2.5,0.6,5.2,0.5,7.1-1.3
	c1.3-1.1,2.4-4.4,4.3-4.2c2.5,0.3,1.2,3.6,1.6,5.2c0.4,2.1,2.1,3.6,4.3,3.9c1.2,0.2,2.4-0.2,3.5-0.6c0.9-0.4,2.1-1.3,3-1.3
	c1.1-0.1,0.8,0.5,0.9,1.5c0.2,1,0.4,1.8,1,2.6c0.7,1,1.8,1.5,3,1.6c1.3,0.2,2.6-0.4,2.5,1.4c-0.3,3.2,4.8,3.1,5.1,0
	C121.8,60.5,119.6,57.8,116.5,57.3z"/>
<path class="st0" d="M235.8,80.2c-4-0.5-8-0.4-11,2.6c-0.8,0.9-0.5,0.4-1.9,0c-1.1-0.3-2.3-0.4-3.4-0.3c-2.3,0.2-4.3,1.1-6.1,2.5
	c-0.8,0.6-1.4,1.3-2.4,1.2c-1-0.2-2-0.9-3-1.2c-2-0.6-4-0.2-5.6,1c-1.6,1.2-2.5,2.8-3.7,4.3c-1.6,1.9-3.9,3.1-6.4,3.4
	c-3.2,0.3-3.2,5.3,0,4.9c4.4-0.5,8.1-2.4,10.8-5.9c1.2-1.6,2-3.6,4.4-2.8c2,0.7,3.7,1.6,5.9,0.9c2-0.7,3.2-2.6,5.3-3.2
	c2.3-0.8,4.2,0.8,6.5,0.6c2.3-0.3,2.7-2.1,4.5-3c1.8-0.9,4.3-0.4,6.2-0.2C239,85.5,239,80.6,235.8,80.2z"/>
<path class="st0" d="M224.5,55.2c-0.4-0.8-0.9-1.5-1.5-2.1c-0.3-0.2-0.7-0.7-1.1-0.8c-0.1-0.1-0.2-0.1-0.2-0.1
	c1.9-2.3,2.5-5.6-0.8-7.1c-0.9-0.4-1.8-0.5-2.8-0.6c-0.9-0.1-2.6,0.2-3.3-0.4c-0.1-0.1-0.1-0.1-0.1-0.1s0.1-0.1,0.1-0.2
	c0.1-0.4,0.6-0.8,0.8-1.1c0.6-0.8,1-1.6,1.4-2.5c1.4-3.6-0.7-7.5-4.7-7.8c-3.2-0.3-3.2,4.7,0,4.9c1,0.1-1.7,3.9-1.8,4.1
	c-0.7,1.2-1,2.3-0.7,3.6c0.6,2.9,3.6,4.1,6.3,4.3c0.1,0,0.9,0.1,1.6,0.1c-0.7,0.9-1.2,1.8-1.2,2.9c-0.1,3.1,4.5,3.6,3.7,6.6
	c-0.8,3.1,4,4.4,4.9,1.3C225.4,58.6,225.3,56.8,224.5,55.2z"/>
<path class="st0" d="M41.1,61.5c-0.7-1.3-2-2.2-3.4-2.8c-0.6-0.3-1.2-0.4-1.8-0.7c-0.4-0.2-1.5-0.7-1.7-0.7c0.3-0.2,2.8-1.9,3.2-2.3
	c1-1.1,1.7-2.5,1.5-3.9c-0.5-3.2-4.9-3.6-3.3-7.3c1.2-2.9-3.6-4.2-4.9-1.3c-1.2,2.8-0.5,6.3,1.8,8.4c0.4,0.3,0.7,0.6,1,0.8
	c0.8,0.4,0.7,0.5-0.3,0.5c-0.5,0.4-1.1,0.7-1.6,1.1c-1.3,1-2.2,2.2-2.4,3.8c-0.3,3.5,2.9,4.7,5.6,5.8c0.3,0.1,1.5,0.7,1.6,0.6
	c0,0.2-1.3,1.2-1.5,1.5c-1,1.4-1,2.9-0.2,4.3c1.6,2.5,5.4,0.6,4.7-1.8l0.1-0.1c0.3-0.2,0.5-0.4,0.7-0.6c0.5-0.5,1-1.1,1.2-1.7
	C41.8,63.8,41.7,62.5,41.1,61.5z"/>
<path class="st0" d="M248.8,103.5c-2.2-0.4-4.2,0.4-5.2,2.5c-0.5,1-0.5,2.1-0.3,3.1c0.3,1.2,1.9,3.3,0.9,4.5c-0.6,0.7-2,1.1-2.8,1.7
	c-0.8,0.6-1.6,1.2-2.1,2.1c-1.1,1.8-1.3,4.1,0.1,5.8c1.9,2.5,6.3,0.1,4.4-2.5c-0.8-1.1,4.3-3.5,5.1-4.6c0.8-1,1-2.3,0.9-3.5
	c-0.2-1.3-0.8-4-2.3-4.2C250.6,108.7,252,104,248.8,103.5z"/>
<path class="st0" d="M135.8,107.6c0.2-0.1,0.5-3.8,0.5-4.6c0.1-1.6-0.2-3.1-1.1-4.5c-1.7-2.6-4.9-3.6-7.9-3
	c-3.2,0.6-1.8,5.4,1.4,4.8c2.4-0.5,2.7,1.9,2.4,3.5s-0.6,3.3-0.1,5.1c1,3,4.5,4.7,7.3,2.9C141.1,110.2,138.5,105.9,135.8,107.6z"/>
<path class="st0" d="M172.3,30.8c-1.6,0.8-4.3-1.9-5.7-2.5c-1.5-0.7-3.1-1.2-4.8-0.8c-1.8,0.4-2.3,1.4-3.6,2.3
	c-0.3,0.2-0.4,0.3-0.4,0.3c-0.5-0.3-1-0.6-1.5-0.9l-3.3-2c-2.8-1.7-5.3,2.6-2.5,4.3c2.1,1.3,4.6,3.4,7,3.7c2.3,0.3,3.2-1.2,4.7-2.4
	c1.8-1.4,4.3,1.3,6,2.1c2.3,1.1,4.5,1.3,6.7,0.2C177.7,33.7,175.2,29.4,172.3,30.8z"/>
</svg>
