<?xml version="1.0" encoding="utf-8"?>
<!-- Generator: Adobe Illustrator 23.0.1, SVG Export Plug-In . SVG Version: 6.00 Build 0)  -->
<svg version="1.1" id="Layer_1" xmlns="http://www.w3.org/2000/svg" xmlns:xlink="http://www.w3.org/1999/xlink" x="0px" y="0px"
	 viewBox="0 0 283.5 193.8" style="enable-background:new 0 0 283.5 193.8;" xml:space="preserve">
<style type="text/css">
	.st0{fill:#3953A4;}
</style>
<title>1</title>
<path class="st0" d="M0,0v193.8h283.5V0H0z M123.6,124.5c-72.2-16.3-84,25.7-97.4,2.8c-13.4-22.9-6.7-58.6-3.2-70.4
	c0,0,6.9-30.2,16.2-30.2c9.3,0-20.7,86.4,2.4,88.2c23.1,1.9,5.3-93,20.3-90.7c15,2.4,13.4,84.6,32.6,61.8c6.6-7.8,17.6-64.5,27-55.2
	c12.9,12.8-7,76.4,23.3,76.4c22.9,0,6.6-71.6,19.2-77.8c12.8-6.3,12.6,6.6,17.2,19.7c4.8,13.5,2,46,13.9,44.1
	c29.3-4.5-25-75.6,17.2-69.1c15,2.3,1,73,17.3,67.4c13.3-4.6,5-67.8,19.8-67.8c9.9,0,15.8,19.2,15.8,53.4c0,36.2-6.9,63.4-56.9,52
	C173.6,121.3,149.1,130.3,123.6,124.5z"/>
</svg>
