<?xml version="1.0" encoding="utf-8"?>
<!-- Generator: Adobe Illustrator 23.0.1, SVG Export Plug-In . SVG Version: 6.00 Build 0)  -->
<svg version="1.1" id="Layer_1" xmlns="http://www.w3.org/2000/svg" xmlns:xlink="http://www.w3.org/1999/xlink" x="0px" y="0px"
	 viewBox="0 0 283.5 193.8" style="enable-background:new 0 0 283.5 193.8;" xml:space="preserve">
<style type="text/css">
	.st0{fill:#3953A4;}
</style>
<title>1</title>
<g>
	<path class="st0" d="M0,0v193.8h283.5V0H0z M184.7,28.2c0.5-1.1,1.8-1.8,3.4-1.9c1.4-0.1,3.1,0.8,3.4,1.9c0.6,2.3,1,4.7,1.3,7.1
		c0.3,0.7,0.7,1.4,1,2c-0.2-3.2,0.3-6.5,1.4-9.7c0.9-2.4,6-2.5,6.7,0c0.3,1,0.6,2,1,3c0.3-0.8,0.6-1.5,0.9-2.2
		c0.9-1.9,3.8-2.3,5.6-1.3c0.1-0.7,0.1-1.3,0.1-2c0.1-1.5,1.5-2.5,3.5-2.6c2-0.1,3.4,1.2,3.5,2.6c0.8,10.7,1,21.5,0.6,32.2
		c-0.1,1.5-1.6,2.5-3.5,2.6c-1.3,0.1-2.5-0.6-3.1-1.4c-1.5-0.3-2.5-1.4-2.6-2.5c-0.1-0.9-0.2-1.7-0.3-2.5c-0.3,0.1-0.6,0.2-0.9,0.3
		c-0.7,0.2-1.4,0.1-2-0.1c-0.2,1.1-1.1,2-2.5,2.3c-1.4,0.4-2.9-0.2-3.8-1c-0.2,0.5-0.5,0.9-0.8,1.4c-1,1.4-4,1.7-5.5,0.5
		c-2-1.7-3.8-3.5-5.2-5.5c-2.5-3.5-3.9-7.4-4.4-11.4C182,36,183,32.1,184.7,28.2z M182.1,66.1c1.5-0.1,3,0.9,3.4,1.9
		c0.5,1.3,0.8,2.5,1.2,3.8c0.8-2,1.5-4,2.8-5.9c1.3-1.8,4.7-1.5,6,0c3.5,3.9,3.1,8.8,3.1,13.3c0,5,0,10,0.1,14.9
		c0,1.5-1.6,2.5-3.5,2.6c-1.9,0.1-3.5-1.2-3.5-2.6c0-4.8,0-9.6-0.1-14.4c0-0.5,0-0.9,0-1.4c-0.5,1.6-1,3.1-1.3,4.8
		c-0.1,0.3-0.1,0.5-0.2,0.7c0,0-0.1,0.6-0.1,0.7c-0.1,0.6-0.2,1.3-0.3,1.9c-0.1,1.3-0.2,2.5-0.1,3.7c0,0.4,0.1,0.8,0.1,1.2
		c0.5,1.9,1,3.8,1.7,5.7c0.6,1.4-0.7,2.7-2.4,3.2c-1.9,0.5-3.7-0.6-4.3-1.8c-1-2.1-1.6-4.3-1.9-6.5c-0.2-1-0.4-2-0.6-3
		c-0.1,1.2-0.3,2.3-0.4,3.4c-0.2,1.4-1.4,2.5-3.5,2.6c-2,0.1-3.3-1.3-3.5-2.6c-1.4-8.1-2.7-16.2-4-24.3c-0.3-1.4,1.8-2.5,3.5-2.6
		c2-0.1,3.3,1.3,3.5,2.6c0.1,0.5,0.2,1.1,0.3,1.6c0.2-0.5,0.4-1,0.6-1.5C179.2,66.9,180.5,66.1,182.1,66.1z M139.7,42
		c-0.3-3.2-0.5-6.4-0.6-9.6c0-1.3,1.4-2.4,3-2.5c1.6-0.2,3.5,0.6,3.8,1.8c0.6,2,1,3.9,1.4,5.9c0.2-0.1,0.5-0.1,0.7-0.1
		c1.5-0.1,3,0.9,3.4,1.9c0.1,0.2,0.1,0.3,0.2,0.5c0-0.1,0-0.1,0.1-0.2c0.2-0.8,1.2-1.4,2.2-1.7c0.5-0.7,1.2-1.2,2.2-1.4
		c1.4-0.4,2.9,0.2,3.8,1c0.3-1.3,0.5-2.6,0.8-3.8c0.3-1.3,2.3-2,3.8-1.8c1.7,0.2,3,1.3,3,2.5v1c0.4,0.2,0.7,0.5,1,0.8
		c0.2-1,0.4-1.9,0.6-2.8c0.4-1.9,4.2-2.5,5.8-1.1c1.9,1.6,2.5,3.4,2.8,5.5c0.2,1.9,0.3,3.7,0.4,5.6c0.2,4,0.2,7.9,0,11.9
		c-0.1,1.3-1.2,2.2-2.7,2.5c0.1,0.3,0.1,0.6,0.2,1c0.2,1.3-1.5,2.4-3,2.5c-1.6,0.2-3.4-0.6-3.8-1.8c-0.1-0.3-0.2-0.5-0.2-0.8
		c0,0.1-0.1,0.1-0.1,0.1c-0.6,0.8-1.7,1.3-2.8,1.3c-0.2,0.8-0.5,1.5-0.8,2.2c-0.5,1.2-2.1,2-3.8,1.8c-1.7-0.2-3-1.3-3-2.5
		c-0.1-2-0.1-3.9,0-5.9c-0.5,0.2-1,0.3-1.5,0.3h-0.1c-0.3,1.2-1.4,2-3,2.2c-1.6,0.2-3.4-0.6-3.8-1.8c-0.1-0.2-0.1-0.4-0.2-0.6
		c-0.2,0.2-0.4,0.3-0.6,0.5c-0.4,0.5-0.9,0.8-1.6,1.1c-0.5,1.6-1.3,3-2.6,4.4c-0.9,1-2.7,1.1-3.9,0.5c-1.8,1.5-5.7,0.9-5.7-2.1
		c0-5.2,0-10.4,0-15.5C135.1,42.1,137.8,41.3,139.7,42z M96,55.1c1.1-0.6,2.7-0.4,3.6,0.4c1,0.9,1.8,1.8,2.6,2.7
		c0.2-0.1,0.3-0.1,0.5-0.2c0.7-0.2,1.4-0.1,2,0.2c0.2-0.7,0.4-1.3,0.7-1.9c0.4-0.7,1.4-1.1,2.2-1.2c1-0.1,1.7,0.2,2.5,0.7
		c0.7,0.5,1.3,1.2,1.8,1.9c0.5-0.1,1-0.1,1.6,0c3,0.7,3.1,3.5,3.3,5.7l0.8,5.9c0.5,4,1.1,8,1.6,11.9c0.1,0.8-0.4,1.5-1,1.9
		c0.4,1.7,0.7,3.4,0.8,5.2c0.1,1.3-1.2,2.4-2.6,2.5c-1.4,0.2-2.9-0.6-3.2-1.8c-0.6-2.3-1-4.7-1.4-7c-0.3-0.8-0.5-1.6-0.8-2.3
		c0.1,0.8,0.2,1.6,0.2,2.4c0.1,1.3-1.2,2.4-2.6,2.5h-0.1c-0.1,0.3-0.2,0.6-0.2,0.9c-0.3,1-1.4,1.7-2.5,1.8c-1.2,0.2-2.3-0.4-2.9-1.2
		c-0.8-1.2-1.5-2.4-2-3.6c-0.6,0.5-1.4,0.7-2.1,0.8c-1.7,0.1-2.8-1.3-3-2.6c-0.5-4.2-0.9-8.4-1.2-12.6c-0.2-2.1-0.3-4.2-0.4-6.3
		c-0.1-1.1-0.1-2.1-0.1-3.2C94,57.1,94.6,55.9,96,55.1z M66.9,31.8c0.1-1.3,1.1-2.4,2.6-2.5c1.5-0.2,2.8,0.6,3.2,1.8
		c0.7,1.7,1.2,3.5,1.7,5.3c0.4-0.3,0.9-0.5,1.5-0.6c0.8-0.1,1.6,0.1,2.2,0.5c0.1-2.1,0.3-4.2,0.8-6.3c0.3-1.3,1.9-2,3.2-1.8
		c1.5,0.2,2.5,1.3,2.6,2.5c0.2,1.9,0.4,3.8,0.6,5.7c0.1,0.2,0.1,0.4,0.1,0.6c0,0.1,0.1,0.4,0.1,0.5s0.1,0.4,0.1,0.5
		c0.1,0.3,0.1,0.5,0.1,0.8c0.1,0.4,0.2,0.8,0.2,1.2c0.5-0.3,1.1-0.4,1.6-0.5c1.7-0.1,2.9,1.2,3,2.6c0.2,3.9-0.3,7.8-1.4,11.6
		c-0.7,2.5-4.9,2.4-5.7,0c-0.1-0.3-0.2-0.5-0.3-0.8C83,52.9,83,53,83,53.1c-0.2,0.8-1.1,1.6-2.1,1.8c-1,0.2-2,0.1-2.8-0.4
		c-0.3,1.6-1.9,2.4-3.7,2.1c-1.9-0.3-2.7-1.5-3.2-3c-0.5,0.3-1,0.4-1.5,0.4c-1.6,0.1-2.9-1.2-3-2.6C66.7,45,66.7,38.4,66.9,31.8z
		 M26.2,32.2c1.3-0.2,2.9,0.6,3.2,1.8c0.1-0.4,0.2-0.7,0.3-1c0.7-1.9,2.8-2.8,4.9-2.2c0.2-0.5,0.4-1,0.8-1.4c0.9-1,2.3-1.5,3.7-1.1
		c1.2,0.3,2.3,1.4,2.2,2.5L41,34.5l0.6-2.1c0.3-1.3,1.9-2,3.2-1.8c1.3,0.2,2.7,1.3,2.6,2.5c-1.2,9.1-2.7,18.2-4.8,27.1
		c-0.3,1.1-1.6,1.8-2.9,1.9c-0.4,0-0.8-0.1-1.2-0.2c-1,0.3-2.2,0.1-3-0.6c-0.4-0.3-0.7-0.6-0.9-0.9c-1.1,1.5-3.9,1.5-5,0.1
		c-0.1,1.4-1.4,2.4-3,2.4c-1.6,0.1-3-1.2-3-2.6c-0.1-8.5-0.1-17-0.1-25.5C23.6,33.4,24.8,32.3,26.2,32.2z M49.8,99.4
		c-0.6,2.1-1.1,4.1-1.6,6.2c-0.3,1.3-1.9,2-3.2,1.8c-0.3-0.1-0.6-0.1-0.8-0.2c0,2.8-0.1,5.7-0.1,8.5c0,2.4-2.8,3.4-4.8,2.6
		c0,2.3,0,4.7-0.1,7c-0.2,3.9-6.1,3.7-6.6,0c-0.2-1.1-0.4-2.2-0.6-3.3c0,1.3,0,2.6,0,3.9c0,3.8-6.6,3.8-6.6,0c0-4,0-8.1,0-12.1
		c0-0.8-0.1-1.7-0.1-2.6c-0.3-0.3-0.5-0.6-0.6-1c-0.8-2.3-1.5-4.8-1.9-7.1c-0.4-0.1-0.8-0.3-1.1-0.6c0,3.3,0,6.7,0,10.1
		c0,1.5-1.4,2.5-3,2.6c-1.6,0.1-2.9-1.2-3-2.6c-0.1-2.5-0.1-5-0.1-7.5c0-1.4,0.1-2.8,0.1-4.3c0-5.8,0-11.5,0.1-17.3
		c0-0.8,0.5-1.5,1.1-2c0.1-1,0.2-1.9,0.3-2.8c0.2-1.4,1.2-2.5,3-2.6c0.1,0,0.2,0,0.3,0v-0.7c0-3.8,6.6-3.8,6.6,0v0.2
		c0.2-0.3,0.4-0.6,0.6-0.8c0-0.5,0-0.9,0-1.4c0-3.8,6.6-3.8,6.6,0c0,0.1,0,0.2,0,0.3c1.1,0.2,2.1,0.7,2.7,1.6c0.5-0.6,1.2-0.9,2-1
		c1.3-0.2,3,0.6,3.2,1.8c1.1,5.4,2.1,10.8,3.1,16.3c1.5,0.2,2.5,1.3,2.6,2.5c0,0.5,0.1,0.9,0.1,1.4C49.5,96.7,50.2,98.1,49.8,99.4z
		 M51.1,84.4c-1.6,0.1-2.9-1.2-3-2.6c-0.2-7.5-0.1-15.1,0.2-22.6c0.1-0.9,0.6-1.7,1.5-2.2c-0.1-5-0.1-10-0.1-15
		c0-2.5,2.5-3.3,4.4-2.6c1-2.3,5.4-2.8,6.2,0.2c1.5,5.5,2.1,11,1.8,16.6l0,0c1.6,0.3,2.4,1.9,2.1,3.2C64,59.7,64,60,63.9,60.2
		c0,0.1-0.1,0.4-0.1,0.5c-0.1,0.5-0.1,1.1-0.1,1.6c0,1.1,0.1,2.1,0.2,3.2c0,0.1,0.1,0.6,0.1,0.6c0.1,0.2,0.1,0.4,0.1,0.6
		c0.1,0.5,0.2,1.1,0.3,1.6c0.3,1.1,0.5,2.1,0.8,3.1c1.2,4.3,2.5,8.7,2.5,13.1c0,1.2-0.9,2.1-2.2,2.5c-1.3,0.4-2.6-0.3-3.3-1.2
		c-0.4-0.5-0.7-1-1-1.5c-0.2,0.5-0.3,1-0.5,1.5c-0.8,1.8-3.2,2.6-5,1.1c-1.1-0.9-1.8-2.2-2.2-3.5C53,84,52.1,84.4,51.1,84.4z
		 M82.2,131.3c-0.4,1.1-1.5,1.8-2.9,1.9c-1.2,0.1-2.6-0.8-2.9-1.9c-0.5-2.3-0.9-4.7-1.1-7.1c-0.3-0.7-0.6-1.4-0.9-2
		c0.2,3.2-0.2,6.5-1.2,9.7c-0.8,2.4-5.1,2.5-5.7,0c-0.3-1-0.6-2-0.8-3c-0.2,0.8-0.5,1.5-0.8,2.2c-0.7,1.9-3.2,2.3-4.8,1.3
		c-0.1,0.7-0.1,1.3-0.1,2c-0.1,1.5-1.3,2.5-3,2.6c-1.7,0.1-2.9-1.2-3-2.6c-0.7-10.7-0.8-21.5-0.5-32.2c0.1-1.5,1.3-2.5,3-2.6
		c1.1-0.1,2.1,0.6,2.6,1.4c1.3,0.3,2.1,1.4,2.2,2.5c0.1,0.9,0.2,1.7,0.3,2.5c0.2-0.1,0.5-0.2,0.7-0.3c0.6-0.2,1.2-0.1,1.7,0.1
		c0.1-1.1,1-2,2.2-2.3c1.2-0.4,2.5,0.2,3.2,1c0.2-0.5,0.4-0.9,0.7-1.4c0.8-1.4,3.4-1.7,4.7-0.5c1.7,1.7,3.2,3.5,4.4,5.5
		c2.1,3.5,3.3,7.4,3.7,11.4C84.5,123.5,83.6,127.4,82.2,131.3z M84.4,93.4c-1.3,0.1-2.5-0.9-2.9-1.9c-0.4-1.3-0.7-2.5-1-3.8
		c-0.6,2-1.3,4-2.3,5.9c-1.1,1.8-4,1.5-5.1,0c-3-3.9-2.6-8.8-2.6-13.3c0-5,0-10-0.1-14.9c0-1.5,1.4-2.5,3-2.6c1.6-0.1,3,1.2,3,2.6
		c0,4.8,0,9.6,0.1,14.4c0,0.5,0,0.9,0,1.4c0.4-1.6,0.8-3.1,1.1-4.8c0.1-0.3,0.1-0.5,0.1-0.7c0,0,0.1-0.6,0.1-0.7
		c0.1-0.6,0.2-1.3,0.2-1.9c0.1-1.3,0.1-2.5,0.1-3.7c0-0.4-0.1-0.8-0.1-1.2c-0.4-1.9-0.8-3.8-1.4-5.7c-0.5-1.4,0.6-2.7,2.1-3.2
		c1.6-0.5,3.1,0.6,3.6,1.8c0.9,2.1,1.4,4.3,1.6,6.5c0.2,1,0.4,2,0.5,3c0.1-1.2,0.2-2.3,0.4-3.4c0.2-1.4,1.2-2.5,3-2.6
		c1.7-0.1,2.8,1.3,3,2.6c1.2,8.1,2.3,16.2,3.4,24.3c0.2,1.4-1.5,2.5-3,2.6c-1.7,0.1-2.8-1.3-3-2.6c-0.1-0.5-0.2-1.1-0.2-1.6
		c-0.2,0.5-0.4,1-0.6,1.5C86.8,92.6,85.7,93.3,84.4,93.4z M118.2,129.6c-1.4,0.2-3-0.6-3.2-1.8c-0.5-2-0.9-3.9-1.2-5.9
		c-0.2,0.1-0.4,0.1-0.6,0.1c-1.3,0.1-2.6-0.9-2.9-1.9c-0.1-0.2-0.1-0.3-0.2-0.5c0,0.1,0,0.1-0.1,0.2c-0.2,0.8-1,1.4-1.9,1.7
		c-0.4,0.7-1.1,1.2-1.9,1.4c-1.2,0.4-2.5-0.2-3.2-1c-0.2,1.3-0.5,2.6-0.7,3.8c-0.3,1.3-1.9,2-3.2,1.8c-1.5-0.2-2.6-1.3-2.6-2.5v-1
		c-0.4-0.2-0.6-0.5-0.9-0.8c-0.2,1-0.3,1.9-0.5,2.8c-0.4,1.9-3.6,2.5-5,1.1c-1.6-1.6-2.1-3.4-2.4-5.5c-0.2-1.9-0.3-3.7-0.3-5.6
		c-0.2-4-0.2-7.9,0-11.9c0.1-1.3,1-2.2,2.3-2.5c-0.1-0.3-0.1-0.6-0.1-1c-0.2-1.3,1.3-2.4,2.6-2.5c1.4-0.2,2.9,0.6,3.2,1.8
		c0.1,0.3,0.2,0.5,0.2,0.8c0-0.1,0.1-0.1,0.1-0.1c0.5-0.8,1.4-1.3,2.4-1.3c0.2-0.8,0.4-1.5,0.7-2.2c0.4-1.2,1.8-2,3.2-1.8
		c1.5,0.2,2.5,1.3,2.6,2.5c0.1,2,0.1,3.9,0,5.9c0.4-0.2,0.8-0.3,1.3-0.3c0,0,0,0,0.1,0c0.2-1.2,1.2-2,2.5-2.2
		c1.4-0.2,2.9,0.6,3.2,1.8c0.1,0.2,0.1,0.4,0.2,0.6c0.2-0.2,0.3-0.3,0.5-0.5c0.5-0.8,1.4-1.3,2.5-1.3c1.3-0.1,2.4,0.8,2.8,1.8
		c0.6,0.7,0.9,1.6,1,2.5c0.4,2.4,0.8,4.8,1,7.2c0.5,4.6,0.8,9.1,0.9,13.7C120.8,128.4,119.7,129.4,118.2,129.6z M120.7,52.4
		c-0.4-1.2-0.7-2.4-0.9-3.6c-0.1,0-0.3,0.1-0.4,0.1c-0.9,0.1-2-0.5-2.5-1.2c-0.6,0.6-1.5,0.9-2.3,1c-0.7,0.1-1.3-0.2-1.9-0.6
		c-0.4,0.2-0.7,0.3-1.1,0.4c-0.8,0.1-1.5-0.1-2.1-0.5l0,0c-0.1,0.5-0.2,0.9-0.4,1.3c-0.5,1.8-3.1,2.8-4.8,1.8
		c-1.4-0.8-2.2-1.8-2.8-2.9c-2,1-4.6-0.6-4.8-2.7c-0.7-6.1-0.9-12.2-0.5-18.3c0.2-3.8,6.8-3.8,6.6,0c-0.1,0.8-0.1,1.6-0.1,2.4
		c1.2-0.2,2.4,0.3,3.2,1.1h0.1c0.5,0,0.9,0.1,1.3,0.3c1.3-2.3,2.7-4.7,4.2-6.8c1.5-2.2,5.5-1.3,5.5,1.3c0,0.9,0.1,1.8,0.1,2.7
		c1,0.2,1.7,0.9,2,1.6c0.4-0.5,1-0.8,1.6-1c1.2-0.3,2.3,0.1,3,0.9c0.4-1.1,1-2,2.2-2.6c1.6-0.9,3.9-0.1,4.4,1.5
		c1.2,4.4,1.1,9-0.6,13.2c0.1,0.9,0.1,1.7,0.1,2.6c0.1,1.2-1,2.1-2.2,2.5c-0.1,0.1-0.2,0.1-0.3,0.1c-0.1,1.9-0.4,3.8-0.9,5.7
		C125.7,54.9,121.4,54.8,120.7,52.4z M133.1,64.9c0.1,1,0.2,2.1,0.3,3.1c0.2,0.1,0.3,0.1,0.5,0.2c1.6,0.8,2.5,1.9,3.1,3.2
		c0.2-0.3,0.4-0.5,0.6-0.7c0.7-0.7,1.6-0.9,2.6-0.8c0.8-0.7,1.8-1,2.8-0.9c0.5-0.2,1-0.4,1.5-0.4c1.6-0.2,3.4,0.6,3.8,1.8
		c0.7,2.3,1.2,4.7,1.6,7c0.3,0.8,0.6,1.6,1,2.3c-0.1-0.8-0.2-1.6-0.3-2.4c-0.1-1.3,1.4-2.4,3-2.5h0.1c0.1-0.3,0.2-0.6,0.3-0.9
		c0.3-1,1.6-1.7,2.9-1.8c1.4-0.2,2.7,0.4,3.5,1.2c1,1.2,1.8,2.4,2.4,3.6c0.7-0.5,1.6-0.7,2.5-0.8c2-0.1,3.3,1.3,3.5,2.6
		c0.6,4.2,1.1,8.4,1.4,12.6c0.2,2.1,0.3,4.2,0.4,6.3c0.1,1.1,0.1,2.1,0.2,3.2c0.1,1.4-0.6,2.7-2.3,3.5c-1.3,0.6-3.2,0.4-4.3-0.4
		c-1.1-0.9-2.1-1.8-3-2.7c-0.2,0.1-0.4,0.1-0.6,0.2c-0.8,0.2-1.6,0.1-2.4-0.2c-0.2,0.7-0.5,1.3-0.8,1.9c-0.4,0.7-1.6,1.1-2.5,1.2
		c-1.2,0.1-2.1-0.2-2.9-0.7c-0.9-0.5-1.5-1.2-2.1-1.9c-0.6,0.1-1.2,0.1-1.9,0c-2-0.4-2.9-1.4-3.3-2.6c-1.6,1-4.2,0.7-5.1-1.1
		c-0.8-0.3-1.6-0.9-2-1.8c-0.2-0.3-0.3-0.7-0.4-1c0,0.1-0.1,0.1-0.1,0.2c-0.5,1.3-1.7,1.9-2.9,2c-0.1,0.3-0.1,0.5-0.1,0.8
		c-0.5,3.7-6.7,3.9-6.6,0c0.4-11.1,0.1-22.2-0.9-33.3C126.2,61.1,132.8,61.2,133.1,64.9z M170.5,130.1c-0.3,2.2-3.6,4.4-5.6,2.1
		c-1-1.1-1.7-2.2-2.4-3.3l-0.6,3c-0.7,3.4-6.4,2.4-6.5-0.8c0-0.8,0-1.5-0.1-2.3c-0.1,0-0.1-0.1-0.2-0.1c-1.5,2.3-3.1,4.7-5,6.8
		c-1.8,2.2-6.4,1.3-6.5-1.3c0-0.9-0.1-1.8-0.1-2.7c-1.2-0.2-2-0.9-2.4-1.6c-0.5,0.5-1.1,0.8-1.9,1c-1.4,0.3-2.7-0.1-3.6-0.9
		c-0.4,1.1-1.2,2-2.6,2.6c-1.9,0.9-4.6,0.1-5.1-1.5c-1.4-4.4-1.3-9,0.7-13.2c-0.1-0.9-0.1-1.7-0.1-2.6c-0.1-1.2,1.1-2.1,2.6-2.5
		c0.1-0.1,0.2-0.1,0.4-0.1c0.2-1.9,0.5-3.8,1.1-5.7c0.8-2.5,5.9-2.4,6.7,0c0.4,1.2,0.8,2.4,1.1,3.6c0.2,0,0.3-0.1,0.5-0.1
		c1.1-0.1,2.3,0.5,3,1.2c0.7-0.6,1.8-0.9,2.8-1c0.8-0.1,1.6,0.2,2.2,0.6c0.4-0.2,0.9-0.3,1.3-0.4c1-0.1,1.8,0.1,2.4,0.5
		c0.5-0.1,1-0.2,1.5-0.1c1.3,0.1,2.2,0.7,2.7,1.5c0.7-0.4,1.5-0.5,2.3-0.4l0.2-0.8c0.6-2.7,4.3-2.6,5.8-0.8c1.8-0.9,5-0.1,5.3,2.4
		C171.1,119,171.1,124.5,170.5,130.1z M202.7,127.7c-0.1,1.3-1.3,2.4-3,2.5c-1.8,0.2-3.2-0.6-3.8-1.8c-0.8-1.7-1.5-3.5-2-5.3
		c-0.5,0.3-1.1,0.5-1.8,0.6c-0.9,0.1-1.9-0.1-2.6-0.5c-0.1,2.1-0.4,4.2-0.9,6.3c-0.3,1.3-2.2,2-3.8,1.8c-1.8-0.2-2.9-1.3-3-2.5
		c-0.2-1.9-0.4-3.8-0.7-5.7c-0.1-0.2-0.1-0.4-0.1-0.6c0-0.1-0.1-0.4-0.1-0.5c0-0.1-0.1-0.4-0.1-0.5c-0.1-0.3-0.1-0.5-0.2-0.8
		c-0.1-0.4-0.2-0.8-0.3-1.2c-0.6,0.3-1.2,0.4-1.9,0.5c-1.9,0.1-3.4-1.2-3.5-2.6c-0.3-3.9,0.4-7.8,1.6-11.6c0.9-2.5,5.8-2.4,6.7,0
		c0.1,0.3,0.2,0.5,0.3,0.8c0.1-0.1,0.1-0.3,0.1-0.4c0.3-0.8,1.3-1.6,2.4-1.8c1.2-0.2,2.4-0.1,3.3,0.4c0.4-1.6,2.2-2.4,4.4-2.1
		c2.2,0.3,3.2,1.5,3.7,3c0.6-0.3,1.2-0.4,1.8-0.4c1.9-0.1,3.5,1.2,3.5,2.6C203,114.4,202.9,121.1,202.7,127.7z M205.9,100.1
		c0.1-0.3,0.2-0.6,0.2-0.8c0-0.1,0.1-0.4,0.1-0.5c0.1-0.5,0.1-1.1,0.1-1.6c0-1.1-0.1-2.1-0.2-3.2c0-0.1-0.1-0.6-0.1-0.6
		c-0.1-0.2-0.1-0.4-0.1-0.6c-0.1-0.5-0.3-1.1-0.4-1.6c-0.3-1.1-0.6-2.1-0.9-3.1c-1.4-4.3-2.9-8.7-2.9-13.1c0-0.5,0.2-0.9,0.5-1.3
		c-0.1-1.4-0.1-2.9,0.1-4.4c0.2-2.2,2.4-3.1,4.2-2.8c1.8-1,4.9-0.2,5.2,2.4c0.1,0.4,0.1,0.8,0.2,1.1c0-0.2,0-0.4,0-0.6
		c0.1-3.1,4.2-3.6,5.9-1.7c1.7-1.5,4.9-1.5,5.4,1.1c0.4,2.3,0.8,4.6,0.9,6.9c0.6,0.5,0.9,1.1,0.9,1.7c0.2,7.5,0.1,15.1-0.2,22.6
		c-0.1,1.3-1.3,2.4-3,2.5c-1.7,0.2-3.4-0.6-3.8-1.8c-0.1-0.2-0.1-0.3-0.2-0.4c-0.3,0.5-0.7,0.9-1.4,1.2c-1.1,0.5-2.5,0.5-3.5,0
		c-0.1,0-0.1-0.1-0.1-0.1c-0.5,1.3-2.6,1.9-4.3,1.6C206.4,102.9,205.5,101.4,205.9,100.1z M250.6,127.3c-1.5,0.2-3.5-0.6-3.8-1.8
		c-0.1,0.4-0.2,0.7-0.3,1c-0.8,1.9-3.3,2.8-5.8,2.2c-0.2,0.5-0.5,1-1,1.4c-1,1-2.7,1.5-4.4,1.1c-1.4-0.3-2.7-1.4-2.6-2.5l0.4-3.7
		l-0.7,2.1c-0.3,0.9-1.2,1.5-2.2,1.7c-0.7,1.2-1.6,2-3.2,2.3c-1.3,0.2-2.4-0.2-3.2-0.8c-0.3,1.8-0.5,3.7-2,4.9
		c-1.8,1.4-4.4,1-5.8-0.7c-1.3-1.4-1.4-3.6-1.6-5.5c-2,1.3-5-0.4-5.1-2.6c-0.1-5.2-0.1-10.4-0.1-15.5c-0.1-3.8,6.5-3.8,6.6,0
		c0,0.4,0,0.8,0,1.3c0.2-0.2,0.3-0.3,0.4-0.4c0.9-0.8,2-1,2.9-0.8c0.1-0.5,0.1-0.9,0.1-1.4c0.2-2.3,3.6-4.3,5.6-2.1
		c0.8,0.8,1.2,1.6,1.4,2.4l0.4-3c0.2-1.8,1.8-2.7,3.3-2.8c0.4-1.6,0.8-3.2,1.2-4.8c0.3-1.1,1.9-1.8,3.4-1.9c0.5,0,1,0.1,1.4,0.2
		c1.2-0.3,2.6-0.1,3.5,0.6c0.4,0.3,0.8,0.6,1,0.9c1.3-1.5,4.6-1.5,5.9-0.1c0.1-1.4,1.7-2.4,3.5-2.4c1.9-0.1,3.5,1.2,3.5,2.6
		c0.1,8.5,0.1,17,0.1,25.5C253.6,126,252.3,127.1,250.6,127.3z M262.9,58.7c0,5.8,0,11.5-0.1,17.3c0,0.8-0.5,1.5-1.3,2
		c-0.1,1-0.2,1.9-0.4,2.8c-0.2,1.4-1.5,2.5-3.5,2.6c-1.9,0.1-3.5-1.2-3.5-2.6c0-0.6,0-1.2,0-1.8c-0.4,3-1.1,6.1-2.2,9
		c-0.8,2.3-4.7,3.1-6,0.7c-0.3-0.5-0.5-0.9-0.7-1.4c-0.6,0.5-1.4,0.9-2.4,1.1c-0.6,0.1-1.1,0.1-1.5,0c-1.6,2.2-6.2,1.7-6.1-1.5
		c0-0.5,0-1.1,0.1-1.6c-1.5,0.1-3.2-0.7-3.5-1.9c-1.2-5.4-2.5-10.8-3.7-16.3c-1.7-0.2-3-1.3-3-2.5c0-0.5-0.1-0.9-0.1-1.4
		c-1.7-0.4-2.6-1.9-2.2-3.1c0.7-2.1,1.3-4.1,1.9-6.2c0.4-1.3,2.2-2,3.8-1.8c0.9,0.1,1.7,0.4,2.2,0.9c-0.7-6.9-1.1-13.9-1.2-20.9
		c-0.1-3.4,5.5-3.9,6.5-0.8c0.2,0.7,0.4,1.3,0.6,2c1.4-1.8,5.5-1.6,5.9,0.9c0.1,0.3,0.1,0.6,0.2,0.8c1.8-1.1,5-0.2,5.2,2.4
		c0.1,0.5,0.1,0.9,0.2,1.3c1.5-0.2,3.5,0.6,3.8,2.1c0.5,3.3,0.9,6.6,1.2,9.9c0.7,1.9,1.3,3.8,1.7,5.7c0.5,0.1,0.9,0.3,1.3,0.6
		c0-3.3,0-6.7,0-10.1c0-1.5,1.6-2.5,3.5-2.6c1.9-0.1,3.4,1.2,3.5,2.6c0.1,2.5,0.1,5,0.1,7.5C262.9,55.8,262.9,57.2,262.9,58.7z"/>
	<path class="st0" d="M194.1,50.6c0.1-0.1,0.2-0.1,0.4-0.1c-0.4-0.6-0.8-1.1-1.2-1.6c0,0.2,0,0.4-0.1,0.6l0.1,0.1
		C193.5,49.9,193.8,50.2,194.1,50.6z"/>
</g>
</svg>
