<?xml version="1.0" encoding="utf-8"?>
<!-- Generator: Adobe Illustrator 23.0.1, SVG Export Plug-In . SVG Version: 6.00 Build 0)  -->
<svg version="1.1" id="Layer_1" xmlns="http://www.w3.org/2000/svg" xmlns:xlink="http://www.w3.org/1999/xlink" x="0px" y="0px"
	 viewBox="0 0 283.5 193.8" style="enable-background:new 0 0 283.5 193.8;" xml:space="preserve">
<style type="text/css">
	.st0{fill:#3953A4;}
</style>
<title>1</title>
<path class="st0" d="M0,0v193.8h283.5V0H0z M140.9,126.1c-2.3,2.9-6.7,4.6-10.5,5.7c-4.1,1.2-8.4,1.8-12.7,2
	c-9.3,0.6-18.7,0-27.9-0.8c-9.3-0.8-18.7-2-27.7-4.1c-8.4-2-16.2-5-22.7-9.8c-5.8-4.2-10.3-9.6-13.2-15.4c-6.9-13.9-5.9-32.9-4-43.8
	c0.3-7.6,2.3-15,6.8-21.6c3.4-5.1,7.7-9.1,13.9-11.1c5.2-1.7,31.1-2.8,38.5,3c7.2,5.7,15.4,24.6,21,31.7c0.4,0.5,0.8,1.1,1.2,1.6
	c1.4,1.3,2.9,2.6,4.4,3.8c0.4,0.3,0.7,0.6,1.1,0.9c0.4,0.3,0.7,0.5,1.1,0.7c1,0.7,2.1,1.4,3.1,2.1c0.4,0.3,0.7,0.5,1.1,0.7
	c1.5,0.4,2.7,1.1,3.9,1.9c2.1,0.9,4.3,1.8,6.4,2.7c0.4,0.2,0.8,0.4,1.2,0.6c3.7,1.6,7.2,3.6,10,6.2c1.7,1.6,3.9,3.6,4,5.8
	c0.2,2.7-2.2,4.3-5.2,4.4c-3.9,0.1-8.1-1-8.7-1c2.9,1.8,12.8,5.1,14.3,7.7c1.7,2.9,2.5,7.5-1.1,9.1c-3.6,1.5-9.3,0.8-9.9,1
	C133.7,114.4,144.9,121.1,140.9,126.1z M265.2,99.9L265.2,99.9c-0.4,4.3-0.6,8.8-2.2,12.9c-2,5-6.4,8.3-10.5,12.1
	c-4.3,4.1-18,7.1-20.8,7.1c-8.6,0.1-35.6,4.4-58.7-18.7c-4.4-4.4-23.7-35.6-29.7-37.6c-0.5-0.2-1-0.4-1.4-0.6
	c-4.4-1.5-8.4-3.4-11.6-5.7c-2-1.4-4.6-3.3-4.8-5.4c-0.2-2.5,2.6-4,6-4c4.7-0.1,9.4,0.9,10.1,0.9c-3.3-1.7-14.9-4.7-16.7-7.1
	c-2-2.6-2.9-6.9,1.3-8.4c4.2-1.4,10.9-0.7,11.5-1c-5.3-4-18.3-10.1-13.7-14.8c2.7-2.7,7.7-4.3,12.2-5.3c4.8-1.1,9.8-1.6,14.8-1.9
	c10.8-0.6,21.9,0,32.6,0.8c10.8,0.8,21.8,1.8,32.3,3.8c9.7,1.8,18.9,4.7,26.5,9c6.8,3.9,12,8.9,15.4,14.3c4.6,7.3,6.2,16.2,6.3,24.4
	c0.5,3.9,0.7,7.9,0.6,11.8C265.9,91,266.1,95.5,265.2,99.9z"/>
</svg>
