<?xml version="1.0" encoding="utf-8"?>
<!-- Generator: Adobe Illustrator 23.0.1, SVG Export Plug-In . SVG Version: 6.00 Build 0)  -->
<svg version="1.1" id="Layer_1" xmlns="http://www.w3.org/2000/svg" xmlns:xlink="http://www.w3.org/1999/xlink" x="0px" y="0px"
	 viewBox="0 0 283.5 193.8" style="enable-background:new 0 0 283.5 193.8;" xml:space="preserve">
<style type="text/css">
	.st0{fill:#3953A4;}
</style>
<title>1</title>
<path class="st0" d="M0,0v193.8h283.5V0H0z M255.4,99.8l-3.2-3.5c-3.9,7.2-9.9,13.6-17.3,18.4l17.8,12.2l-3,3.8l-19.4-13.4
	c-5.7,3-12,5.2-18.8,6.5l4.9,11.4l-4.7,1.8l-5.4-12.5c-2.4,0.3-4.8,0.4-7.2,0.4c-5.7,0-11.3-0.7-16.5-2v13.2h-5.1V125
	c-9.6,7-22.2,11.2-35.8,11.2c-7.8,0-15.3-1.4-22-3.8l-3,5.1l-4.4-2.4l2.8-4.6c-3.8-1.8-7.4-4-10.7-6.5c-1.4,0.1-2.7,0.2-4.1,0.2
	c-6.4,0-12.5-0.9-18.2-2.6l-4.5,11l-4.7-1.7l4.4-10.9c-6.6-2.5-12.6-6.2-17.5-10.6L54.2,125l-4.8-1.5l6.5-18.2
	c-0.7-0.7-1.3-1.5-1.9-2.2c-8-3.5-14.7-8.9-19.2-15.5l-8.5,5.6l-2.9-3.9l8.9-5.9c-2.4-4.7-3.7-9.9-3.7-15.3c0-8.3,3-15.9,8.3-22.3
	l-11.3-8.5l3.1-3.7l11.5,8.6c1-0.9,2-1.8,3-2.6l-5.4-11.4l4.7-1.9l4.9,10.4c7-4.5,15.5-7.2,24.9-7.8l-3-7.8l4.8-1.7l3.6,9.4
	c5.8,0.2,11.3,1.3,16.4,3.1c2.1-0.2,4.2-0.3,6.3-0.3c2.7,0,5.5,0.2,8.1,0.5l-1.3-7.6l5-0.8l1.6,9.3c5.8,1.2,11.2,3.2,16.1,5.8
	c4.1-4.2,9.2-7.7,15-10.2l2.3-8.9l4.9,1.1l-1.5,5.7c5.1-1.5,10.5-2.3,16.1-2.3c7.7,0,15.1,1.6,21.6,4.3c3.5-0.6,7.2-0.9,10.9-0.9
	c3.1,0,6.2,0.2,9.2,0.6l1.4-6.6l5,0.9l-1.4,6.5c8,1.7,15.4,4.8,21.8,9l8-9.7l4,2.9l-7.9,9.6c2.3,1.8,4.5,3.8,6.4,6l10.9-4.2l1.9,4.5
	l-9.6,3.6c5.5,7.4,8.7,16.2,8.7,25.6c0,5.3-1,10.4-2.9,15.2l4.8,5.2L255.4,99.8z"/>
</svg>
