<?xml version="1.0" encoding="utf-8"?>
<!-- Generator: Adobe Illustrator 23.0.1, SVG Export Plug-In . SVG Version: 6.00 Build 0)  -->
<svg version="1.1" id="Layer_1" xmlns="http://www.w3.org/2000/svg" xmlns:xlink="http://www.w3.org/1999/xlink" x="0px" y="0px"
	 viewBox="0 0 283.5 193.8" style="enable-background:new 0 0 283.5 193.8;" xml:space="preserve">
<style type="text/css">
	.st0{fill:#3953A4;}
</style>
<title>1</title>
<path class="st0" d="M0,0v193.8h283.5V0H0z M261,96.5c-0.4,1.8-0.9,3.5-1.6,5.2c-0.8,2-0.5,4.2,0.5,6.1c-0.3,3.5-0.6,7.1-0.9,10.7
	c-0.2,2-0.3,4.1-0.5,6.1l0,0c0.1-0.3,0-0.2-0.1,0.1c-0.4,0.4-0.7,0.7-1.1,1.1c-0.2,0.2-1.2,1-1.6,1.4c-0.4,0.3-1.5,1.1-1.7,1.2
	c-0.9,0.6-1.8,1.1-2.8,1.6c-0.3,0.2-1.4,0.6-1.5,0.7c-0.5,0.2-1.1,0.4-1.6,0.6c-1-0.4-2.1-0.6-3.3-0.5c-8.5,1-17,1.2-25.4,0.4
	c-3.9-0.4-6.5-0.9-11.1-1.7c-5.5-1.1-10.2-1.1-15.3,1.1c-1.1,0.5-2.3,1-3.3,1.5c-0.3,0.2-0.4,0.2-0.5,0.3c-0.1,0.1-0.2,0.1-0.4,0.1
	c-0.1,0.1-1.7,0.4-1.6,0.5c-0.8,0.1-1.7,0.1-2.5,0c-4.1-0.2-8.2-0.8-12.3-1c-8.1-0.5-16.2-0.4-24.3,0.2c-0.8-0.3-1.7-0.4-2.6-0.4
	c-4.9,0.1-9.8,0.2-14.7,0.3c-1-0.2-2-0.3-3-0.5c-4.4-0.7-8.7-1.3-13.1-1.7c-2.3-0.6-4.6-0.8-6.9-0.8c-4.2,0-8.4,0.8-12.6,1.4
	c-0.3,0.1-0.4,0.1-0.5,0.1c-0.2,0-0.3,0.1-0.6,0.1c-1,0.1-2,0.2-3,0.3c-2.2,0.2-4.3,0.2-6.5,0.2c-6.8,0.1-13.5,0.4-20.2,0.8
	c-0.6,0-1.2,0-1.9-0.1c-6.6-0.2-13.2-0.2-19.8-0.6c-0.8-0.1-1.6-0.2-2.4-0.2c-0.1,0-0.2,0-0.3,0c-0.2-0.1-0.4-0.1-0.6-0.1
	c-1.5-0.3-3-0.6-4.4-1.1c-0.5-0.2-1-0.4-1.5-0.5c2,0.7-0.3-0.2-0.7-0.4c-0.5-0.3-0.9-0.5-1.4-0.8c-0.4-0.3-1.2-0.8-1.2-0.8
	c-0.7-0.6-1.3-1.2-1.9-1.9c0.9,1-1.2-2.4-0.9-1.5c-1.2-2.7-1.6-5.8-2.2-8.8c-0.6-2.9-1.1-5.8-1.7-8.7c-0.3-1.6-0.6-3.2-0.9-4.9
	c-0.2-1-0.3-1.9-0.5-2.9c-0.1-0.2-0.3-1.7-0.3-1.9c-0.1-0.3-0.1-0.6-0.1-0.9V69.6c0.3-1.8,0.5-3.5,0.7-5.3c0.5-3.8,0.7-7.5,0.2-11.3
	c-0.1-0.6-0.2-1.1-0.3-1.7c0.1-0.2,0.2-0.3,0.3-0.5c1.9-2.8,4.3-5.4,5.8-8.5c1.1-2.1,1.7-4.2,2.3-6.5c0.1-0.3,0.1-0.5,0.2-0.7
	c0.1,0,0.1-0.1,0.2-0.1c0.2,0,0.4-0.1,0.7-0.1c2.1-0.1,4.2,0.1,6.2,0.3c2.2,0.2,4.4,0.4,6.5,0.7c0,0,0.3,0.1,0.6,0.1
	c0.4,0.1,1.1,0.2,1.2,0.2c1.1,0.2,2.2,0.3,3.3,0.5c9.3,1.4,18.6,2.9,27.9,2.9c5.4-0.1,10.8-0.6,16-1.9c2.3-0.6,4.6-1.4,6.9-2.1
	c1.1-0.4,2.3-0.7,3.4-1c0.5-0.1,0.9-0.2,1.3-0.3c0.2-0.1,2.9-0.5,1.1-0.3c3.7-0.4,7.4-2.6,8.7-6.1c5.3-0.4,10.6-1,15.9-1.7
	c2-0.3,4-0.5,6.1-0.7h24.1c0.2,0.1,0.3,0.1,0.5,0.1c1,0.2,2,0.3,2.9,0.2c5,1.1,9.9,2.3,14.9,3.4c2.4,2.4,5.1,4.6,8.1,6.1
	c7.3,3.8,14.9,3.2,22.8,3.4c3.4,0.1,6.7,0.4,10.1,0.8c0.1,0,1.8,0.3,1.8,0.3c0.8,0.1,1.6,0.3,2.4,0.4c1.7,0.3,3.5,0.7,5.2,1
	c2.4,0.5,4.9,1.1,7.3,1.7c3.6,1.7,7.2,3.5,10.7,5.6c0.8,0.5,1.5,0.9,2.2,1.4c1.1,1.1,2.1,2.1,3.1,3.2c1,1.1,2,2.2,3,3.3
	c0,0,0,0.1,0.1,0.1c0.4,0.7,0.7,1.4,1.1,2.1c0.5,2.2,1,4.3,1.4,6.5c0.3,1.5,0.5,2.9,0.8,4.4c0.1,0.7,0.2,1.3,0.3,2
	c0.1,0.3,0.1,0.7,0.2,1c-0.1-0.6-0.1-0.6,0,0.1c0.2,1.8,0.5,3.6,0.6,5.4v18.6L261,96.5L261,96.5z"/>
<path class="st0" d="M101.5,113c-1.1-3.2-3.7-5.5-6.9-6.9c3.6-7.1,3.5-15.6,0.5-23.1C90.6,71.9,80.9,62,70,55.4
	c-5.3-3.2-11-4.9-17.4-3.9c-6.4,1-12.2,4-17,7.9c-4.7,3.8-7.9,8.7-9.1,14.2C25.2,79.6,26,85.8,27,91.9c1.1,6,2.5,12.5,7.2,17.2
	c0.7,0.7,1.5,1.3,2.3,1.9c-0.8,1.9-1,3.9-0.3,6.1c2.2,6.6,9.2,8.6,16.2,9.3c6,0.6,12,0.6,18,0.1c0.4-0.1,0.8-0.1,1.2-0.2
	c1.6,0.3,3.2,0.5,4.8,0.7c4.8,0.6,9.9,0.7,14.5-0.8C97.1,124.1,103.7,119.5,101.5,113z M71.2,106.9c-0.1,0-0.9,0.2-1.3,0.3
	c-0.3,0-0.8,0.1-0.7,0.1c-0.6,0-1.1,0-1.7,0c-0.1,0-0.2,0-0.3-0.1c-2.2-0.4-4.4-1.1-6.5-1.7c-4.9-1.5-10.2-2.5-15.3-1.4
	c-3.4,0.8-6.4,2.7-8.1,5.2c-0.8-0.6-1.5-1.2-2.1-1.9c-3.7-4.1-5.1-9.5-6-14.5c-2-10.7-2.9-22.2,6.1-30.7c4-3.8,9.3-6.9,15-8.4
	c6.4-1.6,12.4-0.5,17.9,2.7c9.8,5.7,18.3,14.1,23.3,23.5c4.2,7.9,5.3,17.6,1.3,25.5c-2-0.7-4-1-6.1-1.1
	C81.3,104,76.4,105.8,71.2,106.9z"/>
<path class="st0" d="M187.2,98.4c3.6-10.8,1.4-23.9-1.8-34.3c-4.2-13.6-13-27.8-26.3-33.3c-7.7-3.1-17-1-24.8,1.2
	s-15.8,5.4-22.4,10.2c-6.2,4.6-9.3,10.9-9.9,18.7c-0.7,8.2,0.6,16.7,3.2,24.4c2.4,7.1,6.8,15.2,12.7,21.3c-3.3,4.2-4.4,9.9-0.3,14.3
	c2.3,2.5,6.3,4.2,9.4,5.1c0.4,0.1,0.7,0.2,1,0.3c1.2,0.6,2.4,1.1,3.8,1.5c5.7,1.5,11.5,0.3,17.3-0.4c5.2-0.7,10.4-1.3,15.6-2
	c5.5-0.8,11.3-1.4,16.7-3.3c5.7-2.1,10.7-6.3,11.1-13C193,104.5,190.5,100.9,187.2,98.4z M149.6,97.2c-3.7,1.7-7.1,3.9-10.3,6.5
	c-4.4-2.1-8.8-3.6-13.9-2.2c-2.2,0.6-4.3,1.9-6,3.5c-5-5.1-8.8-11.8-11.2-17.8c-2.7-6.8-4.2-14.1-4.3-21.5
	c-0.1-7.7,1.5-15.2,7.4-20.4c5.5-4.8,12.9-7.9,19.6-10.2c7-2.3,15.3-4.6,22.7-3.7c7,0.9,13.3,6,18,11.3c4.4,5,7.8,10.9,10.2,17.2
	c2.7,6.9,4.3,14.4,4.9,21.9c0.4,5.1,0.2,10.3-1.3,15.2c-1.4-0.9-2.9-1.7-4.5-2.3C171,90.5,159.2,92.8,149.6,97.2z"/>
<path class="st0" d="M245.7,53.8c-10.6-6.6-25.3-5.7-35,1.7c-10.9,8.3-13.4,21.9-11.5,33.8c1,6.4,2.8,13.2,6.1,19.1
	c-1.4,1.3-2.5,2.9-3.1,4.8c-1.7,5.6,2.4,11.1,8.4,12.8c0.4,0.1,0.9,0.2,1.3,0.3c4.4,2.3,9.6,3,14.6,2.4c3.4,0,6.8-0.7,10.1-1.2
	c5.6-0.9,11.5-2.4,13.5-7.8c1.2-3.2,0.2-6.4-2-8.7c7.2-7.3,10.3-17.1,10.6-26.7C259,73.3,256.6,60.7,245.7,53.8z M246.6,109.8
	c-1.9-1.4-4.3-2.3-6.9-2.4c-2.6-0.2-4.9,0.6-7.4,1.2c-1.4,0.4-2.9,0.6-4.4,0.4c0.3,0.1-1.4-0.3-2.1-0.5c0.4,0.1-1.8-0.8-2.1-0.9
	c-2.7-1.3-5.5-2.3-8.6-2.5c-3.1-0.2-6,0.6-8.4,2.1c-2.7-5.2-4.4-11-5.4-16.6c-2.1-11-0.6-23.4,8.4-32c8.6-8.1,22.9-10.1,33.6-4.2
	c10.6,5.9,13.2,17.4,13.3,27.7C256.7,92.2,253.9,102.3,246.6,109.8z"/>
</svg>
