<?xml version="1.0" encoding="utf-8"?>
<!-- Generator: Adobe Illustrator 23.0.1, SVG Export Plug-In . SVG Version: 6.00 Build 0)  -->
<svg version="1.1" id="Layer_1" xmlns="http://www.w3.org/2000/svg" xmlns:xlink="http://www.w3.org/1999/xlink" x="0px" y="0px"
	 viewBox="0 0 283.5 193.8" style="enable-background:new 0 0 283.5 193.8;" xml:space="preserve">
<style type="text/css">
	.st0{fill:#3953A4;}
</style>
<title>1</title>
<path class="st0" d="M0,0v193.8h283.5V0H0z M262.4,94.3c-5.8,2.5-10.9,6-15.3,10.5c-0.3,0.3-0.6-0.1-0.4-0.4
	c4.4-4.5,9.7-8,15.4-10.6C262.4,93.7,262.7,94.2,262.4,94.3z M55.4,39.2c3.4-3.8,6.5-7.8,9.4-12.1c0.2-0.3,0.6,0,0.5,0.3
	c-2.9,4.3-6,8.4-9.4,12.2C55.6,39.7,55.2,39.4,55.4,39.2z M39.3,47.4c3.6-2.7,6.8-5.8,9.6-9.3c0.2-0.3,0.6,0.1,0.4,0.4
	c-2.8,3.5-6.1,6.7-9.7,9.4C39.3,48,39.1,47.6,39.3,47.4z M27.2,58.3c8.7-2.7,16.3-8.3,21.5-15.7c0.2-0.3,0.6,0,0.5,0.3
	c-5.3,7.6-13,13.3-21.8,16C27,58.9,26.9,58.4,27.2,58.3z M22.4,133.9V64.7c10.6-2.3,20.1-7.8,28.2-15.2c4.8-4.4,8.9-9.4,12.9-14.5
	c2.3-3,4.4-6.1,5.9-9.4H261v67.2c-18.5,9.2-34.5,23.7-45.6,41.2L22.4,133.9L22.4,133.9z M222.3,133.8c4.7-8.4,10.9-15.9,18.3-22.1
	c0.3-0.2,0.6,0.2,0.4,0.4c-7.3,6.2-13.5,13.6-18.2,22C222.6,134.3,222.2,134,222.3,133.8z M232.5,123.4c-0.2,0.3-0.6-0.1-0.4-0.4
	c4.8-5.4,10.4-10,16.7-13.6c0.3-0.2,0.6,0.3,0.3,0.5C242.9,113.4,237.3,117.9,232.5,123.4z M237.5,130.5c5.2-7.4,11.2-14.2,18-20.2
	c0.3-0.2,0.6,0.2,0.4,0.4c-6.7,6-12.8,12.7-17.9,20.1C237.7,131.1,237.2,130.8,237.5,130.5z"/>
<polygon class="st0" points="22.4,142.6 50.2,111.8 36.3,145.9 62.4,106.4 58.1,138.7 67,118.4 78.9,139.4 78.9,122.2 99.4,148.8 
	32.6,157.4 "/>
<polygon class="st0" points="116.9,15.9 126.6,41.6 128.4,19.5 134.8,49 137.4,15.9 138.8,41.6 152.5,18.5 152.5,36.4 165,15.9 
	172.9,35.7 175.8,22.1 175.8,7.7 114.8,11.3 "/>
<polygon class="st0" points="227.5,14.2 227.5,39.6 230.7,33.6 236.8,68.4 238.3,14.2 248.6,49 248.6,19.2 255.9,40 267.7,31.7 
	264.1,11.6 "/>
<polygon class="st0" points="162.9,141.6 166.1,124.4 169.3,138.7 169.3,113.9 175.8,138.7 175.8,122.2 181.5,144.1 181.5,129 
	188,146.6 188,122.2 195.9,142.6 190.1,150.9 "/>
</svg>
