<?xml version="1.0" encoding="utf-8"?>
<!-- Generator: Adobe Illustrator 23.0.1, SVG Export Plug-In . SVG Version: 6.00 Build 0)  -->
<svg version="1.1" id="Layer_1" xmlns="http://www.w3.org/2000/svg" xmlns:xlink="http://www.w3.org/1999/xlink" x="0px" y="0px"
	 viewBox="0 0 283.5 193.8" style="enable-background:new 0 0 283.5 193.8;" xml:space="preserve">
<style type="text/css">
	.st0{fill:#3953A4;}
</style>
<title>1</title>
<path class="st0" d="M0,0v193.8h283.5V0H0z M215.4,25.6c0.2,2.2-0.6,4.4-1.8,6.3c-0.9,1.3-2.1,2.4-2.9,3.7c-0.8,1.2-1.1,2.5-1.4,3.8
	c-0.4,1.8-0.9,4.2-3.2,4.3c-1.7,0.1-3.6-0.8-4.8-2c-1.3-1.4-0.9-2.8-1.6-4.4c-0.6-1.5-2-2.9-3-4.2c0.1-0.1,0.2-0.2,0.3-0.3
	c2.4-1.9,3.6-4.5,3.9-7.3L215.4,25.6L215.4,25.6z M210.2,46.9c-1.1,1-2.2,1.4-2.7,3c-0.2,0.7-0.1,1.9-0.5,2.4
	c-0.8,1-1.9-0.5-2.7-1.1c-1-0.8-2-1.4-2.4-2.6c-0.4-1.1-0.1-2.3,0.2-3.4l0,0c3.2,1.5,6.8,1.4,8.6-1.9
	C211.1,44.6,211.2,46,210.2,46.9z M198.5,25.6c-0.1,0.3-0.1,0.6-0.2,0.9c-0.8,3-2.6,4.4-5.2,5.9c-1.7,1-3.4,2.3-3.9,4.3
	c-0.3,1.1,0,2,0.2,3c0.5,3-1,3.6-3.6,3.6c-1.6,0-3.4-0.1-3.6-1.9c-0.1-1.2,0.5-2.3,0.4-3.5c-0.2-1.8-1.3-3.2-2.9-4.1
	c-2.5-1.4-5.9-1.1-7.7-3.6c-0.9-1.4-1.3-2.9-1.4-4.5L198.5,25.6L198.5,25.6z M185.6,51c-0.3-0.7-0.9-1.2-1.2-1.8
	c-0.6-1.1-0.7-2.2-0.4-3.4c1.1,0.2,2.1,0.2,3,0.1c0.1,0.8,0.4,1.6,0.4,2.5c-0.1,1.1-0.5,2.3-1,3.3c-0.3,0.6-0.4,1.1-1,1.3
	c-0.8,0.3-0.1-0.1-0.1-0.3C185.6,52,185.8,51.6,185.6,51z M131.2,25.6c-0.1,1.7-0.5,3.3-1.3,4.8c-1,1.6-2.4,2.2-3.8,3.3
	c-0.8,0.6-1.5,1.3-1.8,2.3c-0.4,1,0.1,2.2-1.1,3c-0.5,0.3-1.7,0.2-2.2,0.2c-2.2-0.2-2.4-2.3-3.6-3.7c-0.9-1.1-2.1-1.6-3.3-2.2
	c-3.4-1.6-4.4-4.5-4.4-7.6L131.2,25.6L131.2,25.6z M126.1,39.5c0.6,0.3,1.3,0.7,1.2,1.3c-0.1,0.5-1.1,1.2-1.4,1.7
	c-0.3,0.6-0.5,1.2-0.6,1.9c-0.1,0.4-0.1,0.9-0.4,1.2c-0.4,0.6-0.4,0.6-0.7,0c-0.4-0.9-0.1-1.8-0.9-2.5c-0.4-0.4-0.9-0.5-1.4-0.6
	c-0.4-0.1-0.6,0.1-0.8-0.2c-0.2-0.2-0.2-0.4-0.2-0.7c1.6,0.1,3.5-0.2,4.6-1.5C125.9,39.9,126,39.7,126.1,39.5z M75.7,28.3
	c0.1-0.9,0.2-1.9,0.3-2.8h19.3c0.1,1,0.1,1.9-0.2,2.9c-0.6,2.2-2.6,3.7-2.7,6.1c-0.2,2.3,1.2,4.2,2.1,6.1c0.5,1.1,1.1,2.5,0.4,3.6
	c-1,1.8-4,0.1-5.4-0.6c-2.7-1.4-3.4-3.5-5.1-5.8c-1.2-1.7-2.9-2.5-4.7-3.3c-0.9-0.5-1.9-0.9-2.6-1.5C75.6,31.8,75.6,30.1,75.7,28.3z
	 M97,45.6c1.3,0.6,1.4,2.1,1.2,3.4c-0.1,0.5-0.3,1.5-0.7,1.8c-0.2,0.7-0.6,0.8-1.2,0.2c-0.1-0.2-0.2-0.4-0.3-0.5
	c-0.6-0.7-1-1.2-1.8-1.6c-0.4-0.2-2.5-0.9-2.5-1.6c0.4,0.1,0.7,0.2,1,0.2C94.6,47.7,96.2,47.1,97,45.6z M57.1,25.6
	c-0.1,0.9-0.4,1.8-1.1,2.6c-1.1,1.3-2,2.4-2.3,4.2c-0.2,1.1,0,2.1,0,3.1c0.1,1.5,0.5,3.1-1.5,3.1c-2.1,0-4-2-5.4-3.4
	c-1-1-2.1-2.1-3.5-2.5c-2-0.6-4.1,0.9-6.1-0.1c-2.8-1.3-3.5-4.1-3.6-7.1L57.1,25.6L57.1,25.6z M56.1,40.1c0.4,0.1,1.9,0,2.1,0.3
	c0.3,0.4-0.7,1.9-0.9,2.4c-0.2,0.5,0,1.9-0.4,2.2c-0.7,0.5-1.5-0.9-1.8-1.4c-0.5-0.8-0.8-1.5-1.3-2.1c0-0.1,0-0.2,0-0.3
	c0.4-0.1,0.8-0.3,1.1-0.5c0.3-0.2,0.5-0.5,0.6-0.7C55.8,40,55.9,40.1,56.1,40.1z M22.4,25.6h8.4c0.2,2.1,0,4.4,0.5,5.7
	c0.4,1.1,1,2.1,1.9,2.8c1.7,1.4,2.8,1.8,3.2,4.1c0.6,3.2,0.9,6,2.9,8.8c0.8,1.2,1.8,2.1,2.9,3c0.4,0.3,1.5,0.9,1.7,1.5
	c0.6,1.9-1.5,1.8-2.5,1.8c-3.5,0-6.9-1.9-8.7-4.9C31,45.7,31,42.1,28,40.4c-1-0.6-2-0.7-3.1-0.5c-1,0.2-1.8,0.2-2.5-0.1L22.4,25.6
	L22.4,25.6z M43.1,55.6c0.7-0.1,1.3-0.3,1.9-0.6c1-0.5,1.6-1.3,1.7-2.2l0,0c0.4-0.4,3.2,1.8,4,1.9c0.7,0.1,1.8-0.7,1.2,0.5
	c-0.4,0.8-2.1,0.9-2.8,1c-1.9,0.3-4.2-0.4-6,0.1l0,0C43.1,56.1,43.2,55.8,43.1,55.6z M25.1,122.9c-0.3,0.7-0.5,1.6-0.5,2.4
	c-0.8,0.8-1.5,1.7-2.1,2.5V107c0.1,0.4,0.2,0.6,0.3,0.7c1.4,1.6,3,0.2,4.2-0.9c2.2-2.1,3.9-4.2,4.5-7.2c0.2-1.1,0.1-2.2,1.2-2.9
	c1.9-1.1,3.1,1.6,2.2,3.2c-0.6,1.1-1.6,2.1-1.9,3.3c-0.3,1.1,0.1,2,0.6,3c0.8,1.8,1.2,3.7,1.1,5.8c-0.1,1.2-0.3,2.3-1.2,3.2
	c-0.5,0.4-1.1,0.6-1.6,1c-0.9,0.8-1.4,1.7-1.7,2.8c-0.1,0.4-0.2,0.8-0.3,1.1C27.8,120.2,26.1,120.6,25.1,122.9z M37,110
	c-0.1-0.4-0.1-0.7-0.2-1c0.3,1.2,0.5,2.3,0.5,3.5c0.1,2.9-0.4,7.1-3.9,7.5c-0.4,0.1-0.8,0.1-1.2,0.1c0-0.1,0-0.1,0-0.1
	c0.4-1.3,1.1-1.8,2.2-2.6C36.9,115.7,37.3,112.7,37,110z M49.9,132.4c-0.6,0.6-1.2,1.1-1.9,1.5h-8.9c-0.2,0-0.3,0-0.4,0h-12
	c0.2-0.9,0.3-1.7,0.6-2.5c0.5-1.9,1.4-3.3,2.5-5c0.8-1.2,1.5-2.4,1.9-3.8c0.4,0,0.8,0.1,1.1,0.1c3.8,0,5.9-2.3,6.7-6
	c0.5-2,0.5-4,0.2-6.1c-0.2-1.6-0.8-3.2-0.8-4.8c0.1-1.6,0.9-4.2,3.1-3.5c0.7,0.2,1.4-0.3,1.6-0.9c0.8-2.4,3.6-3.4,5-5.5
	c0-0.1,0.1-0.1,0.1-0.1c0.2,0.1,0.3,0.2,0.4,0.3c2,1.4,5.4,2.2,3.8,5.3c-1.5,2.8-5.1,5.4-3.8,8.9c-1.2,2.6-2.5,5.3-3.8,7.8
	c-0.3,0.6-0.2,1.4,0.5,1.7c1,0.5,2,1,3,1.4c1,0.7,2.2,1.1,3.5,0.9c-0.2,0.5,0,1.1,0.6,1.4c0.6,0.3,1,0.4,1.5,0.5
	C54.7,127.2,52.1,130.2,49.9,132.4z M54.3,114.9c0.9,1.7,0.1,4.1-1,5.7c-0.1-0.5-0.4-0.9-0.9-1c-1-0.2-1.8-0.5-2.7-0.8
	C48.7,116.6,52.3,111.2,54.3,114.9z M121.2,132.2c0,0.6,0,1.2,0,1.7h-16.4c-0.2-0.7-0.4-1.5-0.5-2.2c-0.1-0.4-0.3-1.4-0.2-1.8
	c0.4-1,1.2-0.5,1.7,0.4c0.5,0.7,1.4,0.8,2,0.3c2.7-2.5,1.8-6,1.1-9.2c-0.2-1.1-0.5-2.6-0.2-3.6c0.7-1.9,1.4-1.5,2.4-0.3
	c1.8,2.2,1.8,4.4,2.4,7c0.3,1.2,1.1,2.3,2.4,2.3c1.4,0.1,2.8-1.7,3.9-1.2C121.8,126.4,121.3,130.6,121.2,132.2z M107.3,115.2
	c-0.1,0.1-0.1,0.1-0.1,0.1c-0.8-0.6-1.8-1.2-2.3-1.9c-0.4-0.5-0.4-0.6,0.3-1.1c0.4-0.3,0.8-0.4,1.2-0.6c0.8-0.4,1.6-0.9,2-1.6
	c1.1,0.8,1.8,2,1.9,3.3C109.2,113.5,108.2,113.9,107.3,115.2z M138.2,133.9c-0.1-2.2-0.2-4.4-0.3-6.5c-0.1-0.5-0.1-0.8-0.1-1
	c0.1,0.2,0.1,0.4,0.3,0.5c0.5,0.5,0.9,1.1,1.4,1.6c0.5,0.6,0.9,1.2,1.6,1.4c1.5,0.4,2.3-0.8,2.7-2c0.8-2.5,0.3-5.7,3.4-6.7
	c1.1-0.3,2.8-0.7,3.7,0.1c1.1,0.8,0.9,2.8,0.8,4.1c-0.2,2-1.5,4.4-0.2,6.3c1,1.4,2.8,1.7,4.5,1.6c1.3-0.1,3-0.4,3.8,0.8L138.2,133.9
	L138.2,133.9z M149.8,118.3c0.4-0.5,1.4-0.7,1.8-0.8c0.8-0.1,1.8,0.1,2.5,0.6c1.2,0.8,1.5,2.8-0.1,3.2
	C153.6,119.1,152,118.3,149.8,118.3z M175.6,133.9c0-0.1-0.1-0.2-0.1-0.3c-0.5-3.7,3.5-1.3,5.7-2.2c2-0.9,1.2-4.3,1.2-6
	c-0.1-2.7-0.3-6.5,3-7.4c2.8-0.8,5.3,1,6.6,3.3c1.1,2,0.9,4.3,1.9,6.3c0.8,1.7,2,1.7,3.7,1.9c2.7,0.3,4.2,2.2,5.2,4.4L175.6,133.9
	L175.6,133.9z M184.7,110.3c0.6,0.2,1.2,0.3,1.8,0.1c0.9-0.2,1.6-0.7,1.9-1.5c0.2-0.4,0.2-0.8,0.3-1.2c0.4-1-0.1,1.5-0.2,1.8
	c-0.8,2.3-0.2,4,0.4,6c-2-0.7-4.3-0.5-6.4,1.2c-0.1,0.1-0.1,0.1-0.2,0.2c-1.6-0.6-1.4-2.3,0-3.1c0.4-0.3,0.9-0.3,1.3-0.6
	c0.7-0.5,1.1-1,1.2-1.8C184.8,111.1,184.8,110.7,184.7,110.3z M236.7,133.9c-2.6-2.1-6-2.9-9.3-1.9c-0.3,0.1-0.6,0.2-0.8,0.4
	c-1.6-1-3.3-1.8-5.1-2.2c-0.7-0.2-1.4-0.3-2.1-0.3c-0.7-0.1-1.4-0.1-2.1-0.1c-0.2,0-0.4,0-0.6,0c-0.1-0.1-0.3-0.2-0.4-0.3
	c-1.4-0.9-2.8-1.1-4-0.8c-2.8-1.3-6.4,0.3-7.8,3.1c-0.8-1.5-1.9-2.9-3.4-3.8c-0.8-0.5-1.6-0.8-2.4-1c-0.5-0.1-1.4,0.1-1.8-0.1
	c-1.4-0.6-1.3-3.3-1.7-4.6c-0.6-1.9-1.9-3.7-3.4-5.1c0-0.1,0-0.2,0-0.3c-0.2-1.3-0.8-2.4-1.1-3.6c-0.4-1.6,0.2-2.6,0.6-4
	c0.4-1.5,0.4-3.3-1-4.3c-1.1-0.8-2.6-0.7-3.5,0.4c-0.4,0.5-0.3,1.8-0.6,2.1c-0.7,0.7-1.6-0.7-2.2-0.9c-1.3-0.4-2.4,0.5-2.6,1.8
	c-0.1,0.8,0.6,1.4,0.6,2.1c0.1,0.9-0.9,0.9-1.6,1.5c-2.7,1.9-2,5.5,0.5,7c-0.8,1.8-0.8,3.9-0.8,6c0,0.9,0.4,2.6,0.1,3.4
	c0.3,0.9,0,1.1-0.9,0.8c-0.5,0-1,0-1.4-0.1c-1.4-0.1-2.7-0.2-3.7,0.8c-0.9,0.9-1.1,2.3-1,3.7c-0.9-0.7-1.8-1.1-2.9-1.2
	c-0.4-0.1-0.7-0.1-1-0.1c-0.4-0.1-0.9-0.2-1.3-0.2c-1.5,0.1-3.1,0.6-4.1,1.7c0,0-0.1,0.1-0.1,0.1h-1.1c-0.1-0.3-0.2-0.6-0.3-0.9
	c-1.3-2.6-3.7-2.6-6.2-2.4c-0.4,0.1-0.7,0.1-1.1,0.1c-1.3-0.6-1.7-1.4-1.2-2.4c0-0.7,0.3-1.4,0.4-2.1c0.1-0.8,0.2-1.5,0.2-2.2
	c0.1,0,0.1,0,0.2,0c1.7-0.3,2.9-1.8,3.1-3.5c0.3-1.8-0.7-3.5-2.2-4.5c-2.6-1.6-8.3-1-8.3,2.6c-1.7,0.4-3.3,1.3-4.2,2.9
	c-0.7,1.2-0.9,2.6-1.1,3.9c0-0.1-0.3,1.2-0.2,1.7c-0.4-0.4-1.3-1.5-1.4-1.7c-1.2-1.3-3.7-3-4.7-0.4c-0.5,1.3-0.1,3,0,4.3
	c0.1,1.5,0.2,3,0.2,4.5h-2.4c-1.4-0.5-2.7-1-4.2-1.4c-1.8-0.6-3.8-0.1-5.3,1.2c-0.1-3.5,0.7-7.3-1.9-9.9c-1.1-1.1-2.3-1.3-3.7-0.7
	c-0.4,0.2-0.8,0.7-1.2,0.7c-1,0.1-0.9-0.8-1.1-1.5c-0.3-1.2-0.5-2.3-1-3.5c-0.5-1.2-1.4-2.7-2.5-3.8c0.6-3.4-1.4-6.7-4.8-7.7
	c-0.7-0.2-1.7,0.4-1.6,1.2c0.2,1.1-2,1.5-2.7,2c-0.7,0.5-1.3,1.2-1.5,2c-0.6,2.4,2.5,3.9,4,5.1c0.1,0.1,0.3,0.2,0.4,0.2
	c-0.1,1-0.1,1.9,0.1,2.8c0.3,2.1,1.5,4.9,0.6,6.9c-1-1-2.2-1.6-3.6-1c-2,0.9-1.7,3.5-1.5,5.3c0.1,0.6,0.2,1.3,0.4,1.9
	c-2.9-1.2-6.2-1.8-9.3-1.5c-2.5,0.2-4.5,0.7-6.9,0.2c-2.9-0.7-5.7-1-8.6-0.2c-0.5,0.2-1,0.3-1.5,0.5c-0.2,0.1-0.6,0.1-0.9,0.2
	c-0.1-0.1-0.2-0.1-0.2-0.1c-0.6-0.4-1.3-0.6-1.9-0.9c-2.7-1.2-5.4-1.9-8.3-2.2c-3.9-0.4-7.9,0.6-11.2,2.6c2.4-2.8,4.2-6.3,3.2-10
	c-0.1-0.4-0.6-0.9-1-0.9c1.2-2.1,1.6-4.4,1.1-6.8c-0.7-2.8-2.7-4.4-5.5-3.1c0.3-0.6,0.5-1.1,0.7-1.6c0.9-1.6,1.6-3.3,2.2-5.1
	c0.1-0.4,0.1-0.7-0.1-1c0.8-1,1.4-1.9,1.7-2.8c0.4-1.4,0.1-2.7-0.7-3.8c-0.9-1.3-4.2-2.4-5.4-3.9c0.1-0.9-0.1-1.7-0.5-2.6
	c-0.5-1-2-0.7-2.3,0.3c-0.3,1-0.2,2,0.2,2.8c-0.6,1.4-2.5,2.6-3.4,3.4c-0.9,0.8-1.5,1.5-2,2.4c-2.8-0.1-4.9,2.4-5.2,5.2
	c-0.2,1.3,0.1,2.6,0.3,3.9c-0.2-1-0.5-2-0.9-3c-0.4-1.1-0.7-1.5-0.2-2.6c0.4-0.8,1-1.4,1.4-2.2c1.2-2.2,0.9-5.1-1.5-6.4
	c-2-1.2-4.7-0.4-5.9,1.6c-0.8,1.3-0.7,2.7-1.1,4c-0.6,2-2.1,3.6-3.6,5c-0.1,0.1-0.3,0.4-0.5,0.5c-0.1-0.1-0.1-0.2-0.1-0.4
	c0-0.5-0.2-1.1-0.4-1.5c-0.1-0.3-0.3-0.5-0.5-0.6c1-1.8,1.5-3.9,1.6-5.9c0.1-2-0.3-4-0.2-6c0.1-1.7,0.4-3.4,0.7-5.2
	c0.6-3.9,1.8-8.3,1.8-12.2c0-1.8-0.5-3.5-1.4-5c0.4-0.5,0.7-1,0.9-1.5c1.5-2.9,1.5-6.5-0.6-9.3c-0.1-0.1-0.3-0.5-0.6-0.8
	c-0.1-0.3-0.2-0.5-0.2-0.6c-0.3-1.3-0.5-2.5-0.8-3.8c-0.8-2.6-1.3-5.3-1.9-7.9c-0.2-0.7-0.5-1.3-0.9-1.9v-0.3c0.4,0.1,0.9,0.1,1.3,0
	c1.2-0.2,2.4-0.5,3.4,0.2c1,0.7,1.4,2,1.8,3c0.6,1.5,1,2.9,1.9,4.3c1.5,2.2,3.8,3.9,6.3,4.8c1,0.4,2.1,0.6,3.3,0.7
	c-0.4,1.1-0.4,2.2,0.2,3.4c0.4,1,1.7,0.7,2.2,0c0.6-0.8,3.5-0.2,4.3-0.2c1.4,0,3-0.2,4.4-0.7c1.8-0.7,3.6-2.2,3.2-4.3
	c-0.5-2.7-3.3-1.4-4.9-2.5c-1.1-0.8-2.5-1.6-3.7-1.3C46,50.1,46,50,45.9,49.9c-0.9-1.2-2.3-1.9-3.3-3c-1.4-1.4-2.4-3.2-2.9-5.1
	c-0.6-2-0.5-4.3-1.2-6.2c1.4,0.1,2.9-0.7,4.3-0.4c1.3,0.3,2.3,1.7,3.2,2.6c1,1,2.1,1.8,3.3,2.4c0.5,0.3,1.1,0.5,1.8,0.7
	c-0.3,0.6-0.1,1.4,0.5,1.7c1.8,0.9,1.9,3.4,3.7,4.5c1.6,0.9,3.5,0.6,4.3-1.2c0.5-1.1,0.2-2.2,0.8-3.3c0.5-0.9,1-1.7,0.8-2.7
	c-0.2-0.9-0.8-1.5-1.6-1.8c-0.3-0.1-2.6-0.4-2.6-0.4c0-0.4-0.2-0.6-0.3-0.8c0-0.8-0.1-1.5-0.1-2.2c-0.1-0.9-0.2-1.9,0.2-2.7
	c0.4-1,1.3-1.7,1.9-2.5c0.7-0.8,1.1-1.7,1.3-2.7c0-0.1,0.1-0.2,0.1-0.3c0.8,0.4,1.7,0.6,2.6,0.6c2.4,0,4.8,0,7.2,0
	c1.3,0,2.6-0.5,3.7-1.4c-0.2,1.8-0.3,3.6-0.1,5.3c0.4,2.7,2.2,4.3,4.6,5.5c1.4,0.7,3.1,1.3,4.3,2.5c1.1,1.2,1.5,2.7,2.5,3.9
	c1.1,1.5,2.9,2.8,4.9,3.7c-0.6,2,1.2,3.5,3,4.3c0.8,0.4,1.3,0.6,1.7,1.4c0.2,0.4,0.3,0.8,0.6,1.1c0.7,0.8,1.7,1.1,2.7,0.9
	c2.3-0.5,3.3-3.4,3.5-5.4c0.3-2.4-0.7-4.9-3.1-5.6c0-2.4-1.7-4.3-2.4-6.6c-0.9-2.6,0.9-3.9,1.9-6.1c0.4-1,0.7-2,0.8-3
	c0.5,0.3,1,0.6,1.6,0.7c1.6,0.6,3.4,0.4,5-0.3c0.9-0.4,1.6-0.7,2.3-1.5c0.2-0.2,0.3-0.3,0.4-0.4c0.1,3.2,0.8,6.4,3.7,8.5
	c0.9,0.7,1.9,1,2.8,1.5c1.5,0.8,1.9,1.7,2.7,3.1c0.6,1.2,1.4,1.9,2.4,2.3c-0.1,0.9-0.1,1.8,0.4,2.6c0.3,0.4,0.6,0.7,1,1
	c0.4,0.2,1.6,0.1,1.8,0.3c0.2,0.2,0.1,1.1,0.2,1.4c0.1,0.6,0.3,1.1,0.6,1.5c0.7,0.9,1.8,1.2,2.8,0.8c1-0.4,1.8-1.3,2.2-2.3
	c0.3-0.8,0.3-1.8,0.7-2.5c0.3-0.6,0.8-1,1.2-1.6c1.6-2.4-0.6-4.3-2.7-5.3c0.3-0.9,0.7-1.3,1.8-2c3.4-2.3,4.9-5.7,5.1-9.4h0.2
	c0.6,0.4,1.2,0.8,1.9,1c3.1,1.1,6.5,1.1,9.6-0.1c1.3-0.5,1.5-0.7,2.7-0.4c1.7,0.5,3.5,0.9,5.4,0.8c1.3-0.1,2.6-0.5,3.9-0.4
	c1.3,0.2,2.6,1,3.9,1.2c2.4,0.4,5.2-0.3,7-2c0.1,1.7,0.5,3.4,1.3,4.9c1.6,2.9,4.2,3.5,7.1,4.5c1,0.3,2.1,0.6,2.8,1.4
	c1.1,1.2,0.7,2.2,0.5,3.4c-0.2,1.3-0.4,2.5,0.4,3.6c0.4,0.6,0.9,1.1,1.5,1.4c-0.3,1.1-0.4,2.2-0.1,3.3c0.2,0.7,0.4,1.4,0.8,2.1
	c0.1,0.1,0.6,0.9,0.9,1c-0.2,0.3-0.6,0.7-0.7,0.9c-0.1,0.4-0.1,0.7-0.1,1.1c0.1,0.9,0.7,1.7,1.4,2.1c2.2,1.1,4.1-0.9,4.9-2.7
	c0.5-1.2,1-2.5,1.2-3.8c0.1-0.4-0.4-3.6-0.3-3.7c0.1-0.1,0.2-0.1,0.3-0.2c1.2-0.6,2.1-1.6,2.4-2.9c0.4-1.9-1-3.4-0.2-5.3
	c0.5-1.2,1.5-1.9,2.6-2.5c0.1,0.2,0.1,0.3,0.2,0.4c1,1.3,2.2,2.5,2.6,4c0.3,1,0.3,1.9,0.8,2.8c0.4,0.8,1,1.5,1.6,2.1
	c0,0.1-0.1,0.1-0.1,0.2c-0.8,2.9-1.1,6,1.4,8.2c1.8,1.5,4.6,4.7,7.1,2.8c0.9-0.7,1.1-1.7,1.3-2.8c0.2-1.2,0.4-1.9,1.3-2.6
	c0.5-0.4,1-0.6,1.4-1c2.8-2.3,0.5-6.2-0.5-8.9c0-0.1-0.1-0.1-0.1-0.2c0.2-0.8,0.5-1.6,0.9-2.3c1.1-1.9,2.8-3.3,3.8-5.3
	c0.9-1.7,1.4-3.5,1.5-5.4c0.5,0.3,0.9,0.5,1.5,0.6c4.4,1,8.7,1.7,13.1,2.3c3.4,0.5,6.7,0.4,9.3-1.5c-1.5,3.2-1.8,6.5,1.7,7.6
	c1.7,0.5,4.2,0.3,3.5,2.9c-0.6,2-1.6,3.9-2.4,5.9c-0.4,0.9-0.6,2.1-0.5,3.1c-0.1,0.1-0.1,0.2-0.2,0.3c-0.7,1.9-0.6,4,0.4,5.8
	c0.6,1,1.5,1.5,2.1,2.4c0.6,0.9,0.3,1.9,1.2,2.6c3.6,2.7,6.7-6.4,7.5-8.5c0.1-0.2,0.1-0.4,0.1-0.6c1-1.4,1.2-3.3,1.3-5
	c0.1-1.9-0.1-4.2,0.5-6c0.3-1,1-1.7,1.7-2.3c0,0.3-0.1,0.5,0,0.8c0.9,11.9-0.3,23.7-3.7,35.2c-0.9,3.2-1.6,6.4,0.2,9.4
	c1.3,2.1,2.2,2.2,2.1,4.6c-0.2,2.5-1.2,4.9-1.2,7.4c0,1.8,0.6,3.4,1.4,5c0.2,0.4,0.5,0.9,0.7,1.3c0.1,0.1,0.1,0.1,0.1,0.1
	c-0.2,1.6,0.4,3.3,1.5,4.5c-0.9-0.3-1.8-0.4-2.7-0.1c-1.4,0.4-1.7,1.2-2.7,2c-0.5,0.4,0.2,1-0.8-0.5c-0.5-0.7-0.8-1.3-1.3-2
	c-1-1.4-2.7-3.2-4.6-2.7c-1.8-1.9-3.9-3.7-6.3-4.7c-2.1-0.9-4.4,0.5-4.1,3c0.1,1.2,0.9,2.1,1.7,2.9c0.5,0.4,1.2,0.7,1.5,1.2l0,0
	c-0.9-0.3-1.7-0.6-2.6-0.8c-1.2-0.2-2.1-0.1-2.9,0.4c-0.1-1.8-0.5-3.3-2.4-4.1c-2-0.8-4.5,0.5-4.3,2.7c0.2,2,2.1,3.5,4.2,4.5
	c0,0.9,0,1.7,0.2,2.5c0.1,0.3,0.2,0.5,0.3,0.6c0.4,2.5,1.6,4.8,3,6.9c0.9,1.4,3.5,4.9,0.5,4.8c-1.2-0.1-2.1-0.6-3.2,0.1
	c-2.2,1.2-1.5,3.9-0.5,5.7c1.4,2.4,3.2,4.8,5.1,7h-1.3L236.7,133.9L236.7,133.9z M246.7,50.2c0.6,0.1,1.2-0.4,1.6-0.4
	c0.9,0.1,0.8,0.6,1.4,0.8c0.7,0.4,1.4,0.6,2.1,0.6c-0.4,0.9-0.9,1.8-1.4,2.7c-0.2,0.4-0.8,1.9-1.3,2.2c0-0.1,0-0.1,0-0.1
	c0-0.3-0.1-0.5-0.2-0.7c-0.4-1.2-1.5-1.7-2.2-2.7c-0.6-0.9-0.8-1.8-0.8-2.7C246.3,50.1,246.5,50.1,246.7,50.2z M245.7,103.1
	c-0.3,0.7-0.4,1.5-0.4,2.4c-1.6,0.4-1.9-1-2.4-2.3c-0.5-1.2-1.5-1.7-2.4-2.5c-0.4-0.3-0.7-0.6-0.9-1c0.1-0.9,0.4-1.1,1-0.6
	c0.7,0.2,1.6,1,2.1,1.4C243.9,101.2,244.8,102.1,245.7,103.1z M232.3,103.5c-0.5-0.4-1-0.9-1.3-1.5c-0.5-1.1-0.1-0.9,1.2,0.7
	C232.2,103,232.2,103.3,232.3,103.5z M261,133.9h-20.2c-0.4-0.6-0.8-1.2-1.2-1.7l-2.8-3.8c-0.8-1-2-2.1-2.3-3.3
	c-0.6-1.7,0.7-1.5,2-1.3c0.7,0.1,1.4,0.2,2.1-0.1c1.7-0.7,1.8-2.7,1.5-4.4c-0.5-2.2-2.1-3.9-3.2-5.9c-0.7-1.2-1.9-4.2-1.7-6.2
	c0.3,0.1,0.5,0.1,0.7,0.1c2.7,0.4,4.9,0.1,7.1,1.9c1.1,0.9,2.1,1.8,3.1,2.8c0.7,1.3,1.1,2.7,1.4,4.2c0.1,0.4,0.5,0.8,0.9,0.9
	c3.2,0.5,6.1-1.1,9.2,0.7c1.5,0.9,2.6,2.2,3.5,3.7v12.4H261z M261,117.5c-0.3-0.3-0.7-0.6-1-0.9c-1.3-1-2.7-1.8-4.4-2.1
	c-2.1-0.5-3.9,0.4-5.9,0.4c0-0.1-0.1-0.1-0.1-0.2c0.7-0.4,1.1-1.3,0.4-2c-0.6-0.7-1.3-1.4-1.9-2.1v-0.1c0-1.3,0-2.6-0.1-3.9
	c0-0.7-0.1-1.7,0-2.2c0.2-0.1,0.4-0.3,0.5-0.4c0.2,0.1,0.5,0.2,0.8,0.6c1.3,1.3,1.8,3.2,3.3,4.3c1,0.7,2,0.9,2.9,0c1-0.9,1-2,2.5-2
	c1.1-0.1,2,0.6,2.9,1.3L261,117.5L261,117.5z M261,31.6c-1.3,1.1-3.1,1.9-4.2,2.7c-1.7,1.4-2.5,3.1-2.7,5.3
	c-0.2,1.9,0.6,7.8-1.6,8.9c-1.3,0.6-2.1-1-3.2-1.2c-0.7-0.2-1.9,0.5-2.3,0.4c-1.6-0.7,2.2-7.6,2.5-9.2c0.3-1.6-0.1-3.1-1.3-4.1
	c-1.7-1.3-5-0.4-4.9-3.3c0.1-1.3,1.2-3.1,1.9-4.3c0.3-0.4,0.5-0.8,0.7-1.2h15L261,31.6L261,31.6z"/>
</svg>
