<?xml version="1.0" encoding="utf-8"?>
<!-- Generator: Adobe Illustrator 23.0.1, SVG Export Plug-In . SVG Version: 6.00 Build 0)  -->
<svg version="1.1" id="Layer_1" xmlns="http://www.w3.org/2000/svg" xmlns:xlink="http://www.w3.org/1999/xlink" x="0px" y="0px"
	 viewBox="0 0 540 171.2" style="enable-background:new 0 0 540 171.2;" xml:space="preserve">
<style type="text/css">
	.st0{fill:#3A54A4;stroke:#3A54A4;stroke-miterlimit:10;}
</style>
<title>1</title>
<polygon class="st0" points="540,84 529,22.7 505.6,79.6 490.3,24.5 465.4,81.4 442,19 429.5,85.8 403.9,30.7 389.2,87.8 362.9,19 
	342.6,87.8 321.4,23.6 293,84.8 263.7,27.6 247.5,83.5 230.9,24.5 201.6,89.1 186.3,23.6 160.8,84.8 140.1,29.4 118.3,93.4 
	98.2,23.6 83.3,93.4 62,30.7 43.6,85.4 25.3,30.7 0,85.4 0,-10.1 540,-10.1 "/>
</svg>
